<svg width="1440" height="1440" viewBox="0 0 1440 1440" fill="none" xmlns="http://www.w3.org/2000/svg">
<g clip-path="url(#clip0_831_42)">
<path d="M447.041 794.238C447.041 806.486 449.442 817.136 454.244 826.188C459.579 834.708 466.249 841.897 474.252 847.754C482.255 853.079 491.325 857.073 501.462 859.736C512.133 862.398 523.07 863.729 534.274 863.729C542.277 863.729 550.547 862.93 559.084 861.333C568.154 859.203 576.157 856.274 583.093 852.547C590.563 848.287 596.698 842.962 601.5 836.572C606.302 829.649 608.703 821.13 608.703 811.012C608.703 793.972 597.232 781.192 574.29 772.672C551.881 764.152 520.402 755.633 479.854 747.113C463.314 743.385 447.041 739.125 431.035 734.333C415.563 729.008 401.691 722.352 389.419 714.364C377.148 705.844 367.277 695.461 359.808 683.213C352.338 670.433 348.604 654.991 348.604 636.886C348.604 610.261 353.672 588.429 363.809 571.389C374.48 554.349 388.352 541.037 405.425 531.452C422.498 521.334 441.706 514.412 463.047 510.685C484.389 506.425 506.264 504.295 528.672 504.295C551.081 504.295 572.689 506.425 593.497 510.685C614.838 514.945 633.779 522.133 650.319 532.251C666.858 542.368 680.464 555.947 691.134 572.987C702.339 589.494 709.008 610.527 711.142 636.087H603.101C601.5 614.255 593.23 599.611 578.291 592.156C563.352 584.169 545.745 580.175 525.471 580.175C519.069 580.175 512.133 580.708 504.663 581.773C497.194 582.305 490.258 583.903 483.855 586.565C477.986 589.228 472.918 593.221 468.649 598.546C464.381 603.339 462.247 609.995 462.247 618.515C462.247 628.632 465.982 636.886 473.451 643.276C480.921 649.666 490.524 654.991 502.262 659.251C514.534 662.978 528.406 666.44 543.878 669.635C559.351 672.829 575.09 676.291 591.096 680.018C607.636 683.746 623.642 688.272 639.114 693.597C655.12 698.922 669.259 706.11 681.531 715.163C693.802 723.683 703.672 734.599 711.142 747.911C718.611 760.691 722.346 776.666 722.346 795.836C722.346 822.993 716.744 845.891 705.54 864.528C694.869 882.633 680.73 897.276 663.124 908.459C645.517 919.641 625.242 927.362 602.3 931.622C579.892 936.415 556.95 938.811 533.474 938.811C509.465 938.811 485.989 936.415 463.047 931.622C440.105 926.83 419.564 918.842 401.424 907.66C383.817 896.478 369.145 881.834 357.407 863.729C346.203 845.092 340.067 821.928 339 794.238H447.041Z" fill="#B74735"/>
<path d="M941.717 854.144C960.391 854.144 975.864 850.417 988.135 842.962C1000.94 835.507 1011.08 825.922 1018.55 814.207C1026.55 801.96 1032.15 787.849 1035.35 771.874C1038.55 755.899 1040.15 739.658 1040.15 723.15C1040.15 706.643 1038.29 690.402 1034.55 674.427C1031.35 658.452 1025.75 644.341 1017.75 632.094C1009.74 619.314 999.339 609.196 986.534 601.741C974.263 593.754 959.057 589.76 940.917 589.76C922.243 589.76 906.504 593.754 893.699 601.741C881.428 609.196 871.29 619.047 863.287 631.295C855.818 643.542 850.482 657.653 847.281 673.628C844.08 689.603 842.479 706.11 842.479 723.15C842.479 739.658 844.08 755.899 847.281 771.874C851.016 787.849 856.618 801.96 864.088 814.207C872.091 825.922 882.495 835.507 895.3 842.962C908.104 850.417 923.577 854.144 941.717 854.144ZM732.838 504.295H840.879V568.194H842.479C856.351 545.829 873.958 529.588 895.3 519.471C916.641 509.353 940.117 504.295 965.726 504.295C998.272 504.295 1026.28 510.418 1049.76 522.666C1073.23 534.913 1092.71 551.154 1108.18 571.389C1123.65 591.624 1135.12 615.32 1142.59 642.477C1150.06 669.102 1153.8 697.058 1153.8 726.345C1153.8 754.035 1150.06 780.66 1142.59 806.22C1135.12 831.779 1123.65 854.41 1108.18 874.113C1093.24 893.815 1074.3 909.524 1051.36 921.239C1028.95 932.954 1002.54 938.811 972.129 938.811C946.519 938.811 922.777 933.752 900.902 923.635C879.56 912.985 861.953 897.543 848.082 877.308H846.481V1073H732.838V504.295Z" fill="#B74735"/>
<path d="M1166.07 504.295H1274.11V592.156H1275.71C1281.04 579.376 1288.25 567.662 1297.32 557.012C1306.39 545.829 1316.79 536.511 1328.53 529.056C1340.26 521.068 1352.8 514.945 1366.14 510.685C1379.48 506.425 1393.35 504.295 1407.76 504.295C1415.23 504.295 1423.5 505.626 1432.57 508.288V613.722C1427.23 612.657 1420.83 611.859 1413.36 611.326C1405.89 610.261 1398.69 609.729 1391.75 609.729C1370.94 609.729 1353.34 613.19 1338.93 620.112C1324.53 627.035 1312.79 636.62 1303.72 648.867C1295.18 660.582 1289.05 674.427 1285.31 690.402C1281.58 706.377 1279.71 723.683 1279.71 742.32V928.427H1166.07V504.295Z" fill="#B74735"/>
<path d="M1443.17 504.295H1551.21V572.987H1553.61C1568.02 549.024 1586.69 531.718 1609.63 521.068C1632.58 509.886 1656.05 504.295 1680.06 504.295C1710.47 504.295 1735.28 508.555 1754.49 517.074C1774.23 525.062 1789.7 536.511 1800.91 551.42C1812.11 565.798 1819.85 583.636 1824.12 604.936C1828.92 625.704 1831.32 648.867 1831.32 674.427V928.427H1717.68V695.194C1717.68 661.115 1712.34 635.821 1701.67 619.314C1691 602.274 1672.06 593.754 1644.85 593.754C1613.9 593.754 1591.49 603.073 1577.62 621.71C1563.75 639.815 1556.81 669.901 1556.81 711.968V928.427H1443.17V504.295Z" fill="#B74735"/>
<path d="M1954.75 518.805H2088L2069.66 594.686H1954.75V799.164C1954.75 818.334 1957.95 831.114 1964.35 837.504C1970.76 843.894 1983.56 847.089 2002.77 847.089C2009.17 847.089 2015.31 846.823 2021.17 846.29C2027.04 845.758 2032.65 844.959 2037.98 843.894V931.756C2028.38 933.353 2017.71 934.418 2005.97 934.951C1994.23 935.483 1982.76 935.749 1971.56 935.749C1953.95 935.749 1937.14 934.418 1921.14 931.756C1905.66 929.626 1891.79 925.099 1879.52 918.177C1867.78 911.255 1858.45 901.403 1851.51 888.623C1844.57 875.844 1841.11 859.07 1841.11 838.303V594.686V518.805V395H1954.75V518.805Z" fill="#B74735"/>
</g>
<defs>
<clipPath id="clip0_831_42">
<rect width="1440" height="1440" fill="white"/>
</clipPath>
</defs>
</svg>
