<svg width="110" height="38" viewBox="0 0 110 38" fill="none" xmlns="http://www.w3.org/2000/svg">
<path d="M42.0939 17.832C40.2699 17.832 38.6779 17.472 37.3179 16.752C35.9739 16.032 34.9339 15 34.1979 13.656C33.4619 12.312 33.0939 10.736 33.0939 8.928C33.0939 7.12 33.4619 5.544 34.1979 4.2C34.9339 2.856 35.9739 1.824 37.3179 1.104C38.6779 0.368 40.2699 0 42.0939 0C43.9179 0 45.5019 0.36 46.8459 1.08C48.1899 1.8 49.2219 2.832 49.9419 4.176C50.6779 5.52 51.0459 7.104 51.0459 8.928C51.0459 10.736 50.6779 12.312 49.9419 13.656C49.2219 15 48.1899 16.032 46.8459 16.752C45.5019 17.472 43.9179 17.832 42.0939 17.832ZM34.9659 8.928C34.9659 10.432 35.2539 11.736 35.8299 12.84C36.4059 13.944 37.2299 14.792 38.3019 15.384C39.3739 15.976 40.6379 16.272 42.0939 16.272C43.5339 16.272 44.7899 15.976 45.8619 15.384C46.9339 14.792 47.7579 13.944 48.3339 12.84C48.9099 11.736 49.1979 10.432 49.1979 8.928C49.1979 7.424 48.9099 6.12 48.3339 5.016C47.7579 3.912 46.9339 3.064 45.8619 2.472C44.7899 1.864 43.5339 1.56 42.0939 1.56C40.6379 1.56 39.3739 1.864 38.3019 2.472C37.2299 3.064 36.4059 3.912 35.8299 5.016C35.2539 6.12 34.9659 7.424 34.9659 8.928ZM37.1739 8.928C37.1739 7.328 37.6059 6.032 38.4699 5.04C39.3499 4.032 40.5579 3.528 42.0939 3.528C43.4379 3.528 44.5259 3.896 45.3579 4.632C46.1899 5.368 46.6699 6.304 46.7979 7.44H44.7819C44.7019 6.944 44.4619 6.48 44.0619 6.048C43.6779 5.6 43.0459 5.376 42.1659 5.376C41.1259 5.376 40.3819 5.704 39.9339 6.36C39.4859 7 39.2619 7.856 39.2619 8.928C39.2619 9.984 39.4859 10.84 39.9339 11.496C40.3819 12.136 41.1259 12.456 42.1659 12.456C43.0459 12.456 43.6859 12.24 44.0859 11.808C44.4859 11.36 44.7179 10.88 44.7819 10.368H46.7979C46.7179 11.504 46.2779 12.448 45.4779 13.2C44.6779 13.936 43.6139 14.304 42.2859 14.304C40.7019 14.304 39.4539 13.816 38.5419 12.84C37.6299 11.848 37.1739 10.544 37.1739 8.928Z" fill="#C6C6C8"/>
<path d="M56.4401 17.496C56.4401 16.008 56.8641 14.688 57.7121 13.536C58.5601 12.384 59.8241 11.288 61.5041 10.248L62.0561 9.912C63.0481 9.32 63.7761 8.848 64.2401 8.496C64.7201 8.144 65.0881 7.744 65.3441 7.296C65.6001 6.848 65.7281 6.296 65.7281 5.64C65.7281 4.824 65.5121 4.152 65.0801 3.624C64.6641 3.08 63.9441 2.808 62.9201 2.808C60.6481 2.808 59.5121 4.128 59.5121 6.768H56.8721C56.8721 4.912 57.3841 3.416 58.4081 2.28C59.4481 1.144 60.9761 0.576 62.9921 0.576C64.0001 0.576 64.9121 0.776 65.7281 1.176C66.5601 1.56 67.2161 2.128 67.6961 2.88C68.1761 3.632 68.4161 4.52 68.4161 5.544C68.4161 6.536 68.1841 7.416 67.7201 8.184C67.2561 8.952 66.6881 9.6 66.0161 10.128C65.3441 10.64 64.4801 11.224 63.4241 11.88C62.3521 12.504 61.5281 13.056 60.9521 13.536C60.3761 14 59.9841 14.56 59.7761 15.216V15.264H68.2241V17.496H56.4401Z" fill="#C6C6C8"/>
<path d="M76.3442 17.832C74.1362 17.832 72.4802 17.032 71.3762 15.432C70.2882 13.832 69.7442 11.76 69.7442 9.216C69.7442 7.568 69.9762 6.096 70.4402 4.8C70.9202 3.504 71.6482 2.48 72.6242 1.728C73.6162 0.96 74.8562 0.576 76.3442 0.576C78.5362 0.576 80.1762 1.384 81.2642 3C82.3682 4.6 82.9202 6.672 82.9202 9.216C82.9202 11.76 82.3762 13.832 81.2882 15.432C80.2002 17.032 78.5522 17.832 76.3442 17.832ZM72.4562 9.216C72.4562 11.12 72.7522 12.664 73.3442 13.848C73.9522 15.016 74.9522 15.6 76.3442 15.6C77.7362 15.6 78.7282 15.016 79.3202 13.848C79.9122 12.664 80.2082 11.12 80.2082 9.216C80.2082 7.312 79.9042 5.768 79.2962 4.584C78.7042 3.4 77.7202 2.808 76.3442 2.808C74.9522 2.808 73.9522 3.4 73.3442 4.584C72.7522 5.752 72.4562 7.296 72.4562 9.216Z" fill="#C6C6C8"/>
<path d="M83.8986 17.496C83.8986 16.008 84.3226 14.688 85.1706 13.536C86.0186 12.384 87.2826 11.288 88.9626 10.248L89.5146 9.912C90.5066 9.32 91.2346 8.848 91.6986 8.496C92.1786 8.144 92.5466 7.744 92.8026 7.296C93.0586 6.848 93.1866 6.296 93.1866 5.64C93.1866 4.824 92.9706 4.152 92.5386 3.624C92.1226 3.08 91.4026 2.808 90.3786 2.808C88.1066 2.808 86.9706 4.128 86.9706 6.768H84.3306C84.3306 4.912 84.8426 3.416 85.8666 2.28C86.9066 1.144 88.4346 0.576 90.4506 0.576C91.4586 0.576 92.3706 0.776 93.1866 1.176C94.0186 1.56 94.6746 2.128 95.1546 2.88C95.6346 3.632 95.8746 4.52 95.8746 5.544C95.8746 6.536 95.6426 7.416 95.1786 8.184C94.7146 8.952 94.1466 9.6 93.4746 10.128C92.8026 10.64 91.9386 11.224 90.8826 11.88C89.8106 12.504 88.9866 13.056 88.4106 13.536C87.8346 14 87.4426 14.56 87.2346 15.216V15.264H95.6826V17.496H83.8986Z" fill="#C6C6C8"/>
<path d="M103.203 17.832C101.923 17.832 100.819 17.6 99.8906 17.136C98.9786 16.672 98.2746 16.048 97.7786 15.264C97.2826 14.464 97.0186 13.592 96.9866 12.648H99.6266C99.7226 13.512 100.043 14.224 100.587 14.784C101.131 15.328 101.955 15.6 103.059 15.6C104.131 15.6 104.979 15.28 105.603 14.64C106.243 13.984 106.563 13.048 106.563 11.832C106.563 10.696 106.267 9.848 105.675 9.288C105.099 8.728 104.283 8.448 103.227 8.448C102.523 8.448 101.883 8.576 101.307 8.832C100.731 9.072 100.251 9.44 99.8666 9.936H97.2026L98.9786 0.912H108.411V3.144H100.971L100.059 7.728V7.776C100.987 6.816 102.275 6.336 103.923 6.336C104.947 6.336 105.867 6.576 106.683 7.056C107.499 7.52 108.131 8.176 108.579 9.024C109.027 9.856 109.251 10.792 109.251 11.832C109.251 13.032 108.987 14.088 108.459 15C107.931 15.896 107.203 16.592 106.275 17.088C105.363 17.584 104.339 17.832 103.203 17.832Z" fill="#C6C6C8"/>
<path d="M5.88 37.832C4.872 37.832 3.976 37.632 3.192 37.232C2.408 36.816 1.776 36.264 1.296 35.576C0.832 34.888 0.544 34.128 0.432 33.296H3.12C3.216 34.032 3.488 34.616 3.936 35.048C4.4 35.464 5.056 35.672 5.904 35.672C7.312 35.672 8.312 35.136 8.904 34.064C9.496 32.976 9.792 31.6 9.792 29.936V29.696L9.72 29.672C9.288 30.376 8.696 30.92 7.944 31.304C7.208 31.672 6.376 31.856 5.448 31.856C4.392 31.856 3.448 31.624 2.616 31.16C1.8 30.696 1.16 30.048 0.696 29.216C0.232 28.368 0 27.408 0 26.336C0 25.264 0.24 24.288 0.72 23.408C1.2 22.528 1.888 21.84 2.784 21.344C3.68 20.832 4.728 20.576 5.928 20.576C10.232 20.576 12.384 23.44 12.384 29.168C12.384 31.904 11.816 34.032 10.68 35.552C9.544 37.072 7.944 37.832 5.88 37.832ZM2.64 26.192C2.64 27.28 2.928 28.136 3.504 28.76C4.08 29.368 4.856 29.672 5.832 29.672C6.952 29.672 7.84 29.352 8.496 28.712C9.168 28.056 9.504 27.2 9.504 26.144C9.504 25.12 9.192 24.296 8.568 23.672C7.96 23.048 7.096 22.736 5.976 22.736C4.92 22.736 4.096 23.048 3.504 23.672C2.928 24.296 2.64 25.136 2.64 26.192Z" fill="#C6C6C8"/>
<path d="M20.3661 37.832C18.1581 37.832 16.5021 37.032 15.3981 35.432C14.3101 33.832 13.7661 31.76 13.7661 29.216C13.7661 27.568 13.9981 26.096 14.4621 24.8C14.9421 23.504 15.6701 22.48 16.6461 21.728C17.6381 20.96 18.8781 20.576 20.3661 20.576C22.5581 20.576 24.1981 21.384 25.2861 23C26.3901 24.6 26.9421 26.672 26.9421 29.216C26.9421 31.76 26.3981 33.832 25.3101 35.432C24.2221 37.032 22.5741 37.832 20.3661 37.832ZM16.4781 29.216C16.4781 31.12 16.7741 32.664 17.3661 33.848C17.9741 35.016 18.9741 35.6 20.3661 35.6C21.7581 35.6 22.7501 35.016 23.3421 33.848C23.9341 32.664 24.2301 31.12 24.2301 29.216C24.2301 27.312 23.9261 25.768 23.3181 24.584C22.7261 23.4 21.7421 22.808 20.3661 22.808C18.9741 22.808 17.9741 23.4 17.3661 24.584C16.7741 25.752 16.4781 27.296 16.4781 29.216Z" fill="#C6C6C8"/>
<path d="M34.7604 37.832C30.4564 37.832 28.3044 34.968 28.3044 29.24C28.3044 26.504 28.8724 24.376 30.0084 22.856C31.1444 21.336 32.7364 20.576 34.7844 20.576C35.7924 20.576 36.6884 20.784 37.4724 21.2C38.2724 21.6 38.9044 22.144 39.3684 22.832C39.8484 23.52 40.1364 24.28 40.2324 25.112H37.5684C37.4564 24.376 37.1764 23.8 36.7284 23.384C36.2804 22.952 35.6324 22.736 34.7844 22.736C33.3604 22.736 32.3524 23.28 31.7604 24.368C31.1844 25.44 30.8964 26.808 30.8964 28.472V28.712L30.9684 28.736C31.4004 28.032 31.9844 27.496 32.7204 27.128C33.4564 26.744 34.2964 26.552 35.2404 26.552C36.2964 26.552 37.2324 26.784 38.0484 27.248C38.8804 27.712 39.5284 28.368 39.9924 29.216C40.4564 30.048 40.6884 31 40.6884 32.072C40.6884 33.144 40.4484 34.12 39.9684 35C39.4884 35.88 38.8004 36.576 37.9044 37.088C37.0084 37.584 35.9604 37.832 34.7604 37.832ZM31.1844 32.264C31.1844 33.288 31.4884 34.112 32.0964 34.736C32.7204 35.36 33.5844 35.672 34.6884 35.672C35.7604 35.672 36.5844 35.36 37.1604 34.736C37.7524 34.112 38.0484 33.272 38.0484 32.216C38.0484 31.128 37.7604 30.28 37.1844 29.672C36.6084 29.048 35.8324 28.736 34.8564 28.736C33.7364 28.736 32.8404 29.064 32.1684 29.72C31.5124 30.36 31.1844 31.208 31.1844 32.264Z" fill="#C6C6C8"/>
<path d="M49.4156 33.704H41.5196V31.304L49.4156 20.912H52.0076V31.472H54.3356V33.704H52.0076V37.496H49.4156V33.704ZM49.4156 31.472V24.248L43.9196 31.472H49.4156Z" fill="#C6C6C8"/>
<path d="M54.8867 37.496C54.8867 36.008 55.3107 34.688 56.1587 33.536C57.0067 32.384 58.2707 31.288 59.9507 30.248L60.5027 29.912C61.4947 29.32 62.2227 28.848 62.6867 28.496C63.1667 28.144 63.5347 27.744 63.7907 27.296C64.0467 26.848 64.1747 26.296 64.1747 25.64C64.1747 24.824 63.9587 24.152 63.5267 23.624C63.1107 23.08 62.3907 22.808 61.3667 22.808C59.0947 22.808 57.9587 24.128 57.9587 26.768H55.3187C55.3187 24.912 55.8307 23.416 56.8547 22.28C57.8947 21.144 59.4227 20.576 61.4387 20.576C62.4467 20.576 63.3587 20.776 64.1747 21.176C65.0067 21.56 65.6627 22.128 66.1427 22.88C66.6227 23.632 66.8627 24.52 66.8627 25.544C66.8627 26.536 66.6307 27.416 66.1667 28.184C65.7027 28.952 65.1347 29.6 64.4627 30.128C63.7907 30.64 62.9267 31.224 61.8707 31.88C60.7987 32.504 59.9747 33.056 59.3987 33.536C58.8227 34 58.4307 34.56 58.2227 35.216V35.264H66.6707V37.496H54.8867Z" fill="#C6C6C8"/>
<path d="M73.1584 20.336H75.7984V37.496H73.1584V20.336Z" fill="#C6C6C8"/>
<path d="M78.4853 20.336H81.5092L89.4772 33.536H89.5252V20.336H92.1892V37.496H89.1653L81.1732 24.296H81.1253V37.496H78.4853V20.336Z" fill="#C6C6C8"/>
<path d="M102.051 37.832C100.451 37.832 99.0426 37.456 97.8266 36.704C96.6266 35.936 95.6906 34.88 95.0186 33.536C94.3626 32.176 94.0346 30.64 94.0346 28.928C94.0346 27.216 94.3626 25.68 95.0186 24.32C95.6906 22.96 96.6346 21.904 97.8506 21.152C99.0666 20.384 100.475 20 102.075 20C103.467 20 104.691 20.272 105.747 20.816C106.819 21.36 107.667 22.096 108.291 23.024C108.915 23.952 109.299 25 109.443 26.168H106.683C106.491 25.096 106.035 24.184 105.315 23.432C104.595 22.664 103.499 22.28 102.027 22.28C100.251 22.28 98.9306 22.912 98.0666 24.176C97.2186 25.44 96.7946 27.016 96.7946 28.904C96.7946 30.808 97.2186 32.392 98.0666 33.656C98.9306 34.92 100.251 35.552 102.027 35.552C103.547 35.552 104.675 35.144 105.411 34.328C106.163 33.496 106.587 32.472 106.683 31.256H109.443C109.315 32.536 108.939 33.672 108.315 34.664C107.691 35.656 106.843 36.432 105.771 36.992C104.699 37.552 103.459 37.832 102.051 37.832Z" fill="#C6C6C8"/>
</svg>
