<svg width="422" height="140" viewBox="0 0 422 140" fill="none" xmlns="http://www.w3.org/2000/svg">
<path d="M0 140V0H5.47922V140H0ZM10.9584 140V0H32.8753V140H10.9584ZM43.8338 140V0H49.313V140H43.8338Z" fill="#C6C6C8"/>
<path d="M54.8065 140V0H60.2857V140H54.8065ZM65.7649 140V0H71.2442V140H65.7649ZM82.2026 140V0H104.119V140H82.2026Z" fill="#C6C6C8"/>
<path d="M109.613 140V0H115.092V140H109.613ZM126.051 140V0H131.53V140H126.051ZM142.488 140V0H164.405V140H142.488Z" fill="#C6C6C8"/>
<path d="M164.419 140V0H175.378V140H164.419ZM197.295 140V0H202.774V140H197.295ZM208.253 140V0H213.732V140H208.253Z" fill="#C6C6C8"/>
<path d="M219.226 140V0H224.705V140H219.226ZM235.664 140V0H257.581V140H235.664ZM263.06 140V0H268.539V140H263.06Z" fill="#C6C6C8"/>
<path d="M274.032 140V0H279.512V140H274.032ZM295.949 140V0H317.866V140H295.949ZM323.345 140V0H328.825V140H323.345Z" fill="#C6C6C8"/>
<path d="M328.839 140V0H339.797V140H328.839ZM361.714 140V0H367.194V140H361.714ZM372.673 140V0H378.152V140H372.673Z" fill="#C6C6C8"/>
<path d="M383.645 140V0H389.125V140H383.645ZM394.604 140V0H405.562V140H394.604ZM416.521 140V0H422V140H416.521Z" fill="#C6C6C8"/>
</svg>
