<svg width="440" height="64" viewBox="0 0 440 64" fill="none" xmlns="http://www.w3.org/2000/svg">
<path d="M0 64V0H5.71293V64H0ZM11.4259 64V0H34.2776V64H11.4259ZM45.7035 64V0H51.4164V64H45.7035Z" fill="#C6C6C8"/>
<path d="M57.1442 64V0H62.8571V64H57.1442ZM68.5701 64V0H74.283V64H68.5701ZM85.7089 64V0H108.561V64H85.7089Z" fill="#C6C6C8"/>
<path d="M114.288 64V0H120.001V64H114.288ZM131.427 64V0H137.14V64H131.427ZM148.566 64V0H171.418V64H148.566Z" fill="#C6C6C8"/>
<path d="M171.433 64V0H182.858V64H171.433ZM205.71 64V0H211.423V64H205.71ZM217.136 64V0H222.849V64H217.136Z" fill="#C6C6C8"/>
<path d="M228.577 64V0H234.29V64H228.577ZM245.716 64V0H268.567V64H245.716ZM274.28 64V0H279.993V64H274.28Z" fill="#C6C6C8"/>
<path d="M285.721 64V0H291.434V64H285.721ZM308.573 64V0H331.425V64H308.573ZM337.137 64V0H342.85V64H337.137Z" fill="#C6C6C8"/>
<path d="M342.865 64V0H354.291V64H342.865ZM377.143 64V0H382.856V64H377.143ZM388.569 64V0H394.282V64H388.569Z" fill="#C6C6C8"/>
<path d="M400.009 64V0H405.722V64H400.009ZM411.435 64V0H422.861V64H411.435ZM434.287 64V0H440V64H434.287Z" fill="#C6C6C8"/>
</svg>
