<svg width="1320" height="245" viewBox="0 0 1320 245" fill="none" xmlns="http://www.w3.org/2000/svg">
<path d="M0 5.59174H70.4871V19.1071H15.6322V49.6945H59.9709V63.2098H15.6322V107.313H0V5.59174Z" fill="#C6C6C8"/>
<path d="M76.3148 34.7564H90.2417V107.313H76.3148V34.7564ZM75.4621 6.72987H91.2364V21.8102H75.4621V6.72987Z" fill="#C6C6C8"/>
<path d="M115.539 107.313H101.612V34.7564H115.539V48.5563H115.823C120.181 38.2183 126.671 33.0492 135.292 33.0492C137.661 33.0492 139.887 33.1915 141.971 33.476V46.8491C140.266 46.5646 138.703 46.4223 137.282 46.4223C130.934 46.4223 125.723 48.6037 121.649 52.9666C117.575 57.3294 115.539 62.9253 115.539 69.7541V107.313Z" fill="#C6C6C8"/>
<path d="M175.818 109.447C168.334 109.447 161.891 107.787 156.491 104.467C151.091 101.148 146.97 96.5951 144.127 90.8096C141.38 85.024 140.006 78.3849 140.006 70.8922C140.006 63.3046 141.427 56.6181 144.269 50.8326C147.206 45.0471 151.375 40.542 156.775 37.3172C162.175 34.0925 168.523 32.4802 175.818 32.4802C186.713 32.4802 195.145 35.7997 201.114 42.4388C207.177 49.078 210.209 58.0882 210.209 69.4695C210.209 72.22 210.162 73.9746 210.067 74.7334H154.359C154.549 81.2777 156.491 86.8261 160.186 91.3786C163.975 95.8363 169.281 98.0652 176.102 98.0652C181.787 98.0652 186.145 96.6899 189.177 93.9394C192.303 91.1889 194.293 88.2013 195.145 84.9766H209.356C207.272 92.3745 203.435 98.3023 197.845 102.76C192.256 107.218 184.913 109.447 175.818 109.447ZM195.714 63.7789C195.714 57.9934 193.819 53.2511 190.029 49.5522C186.334 45.7584 181.455 43.8615 175.392 43.8615C169.518 43.8615 164.639 45.711 160.754 49.4099C156.87 53.014 154.738 57.8037 154.359 63.7789H195.714Z" fill="#C6C6C8"/>
<path d="M249.194 132.778C246.636 132.778 243.652 132.446 240.241 131.782V120.401C242.704 120.686 244.694 120.828 246.21 120.828C249.431 120.828 252.368 119.737 255.021 117.556C257.768 115.469 259.805 111.818 261.131 106.601L231.856 34.7564H247.062L268.237 90.2405H268.521L288.417 34.7564H303.054L274.348 109.02C270.937 117.84 267.289 124.005 263.405 127.514C259.616 131.024 254.878 132.778 249.194 132.778Z" fill="#C6C6C8"/>
<path d="M337.065 109.447C329.676 109.447 323.233 107.834 317.738 104.609C312.243 101.385 308.027 96.8796 305.09 91.0941C302.248 85.3086 300.827 78.622 300.827 71.0345C300.827 63.4469 302.295 56.7604 305.232 50.9748C308.169 45.1893 312.338 40.6842 317.738 37.4595C323.233 34.1399 329.723 32.4802 337.207 32.4802C344.597 32.4802 350.992 34.0925 356.392 37.3172C361.887 40.542 366.056 45.0945 368.898 50.9748C371.835 56.7604 373.304 63.3995 373.304 70.8922C373.304 78.4798 371.835 85.2137 368.898 91.0941C365.961 96.8796 361.745 101.385 356.25 104.609C350.85 107.834 344.455 109.447 337.065 109.447ZM315.322 71.0345C315.322 79.0014 317.17 85.4983 320.865 90.525C324.56 95.4569 330.007 97.9229 337.207 97.9229C344.313 97.9229 349.666 95.4569 353.266 90.525C356.961 85.4983 358.808 79.0014 358.808 71.0345C358.808 63.0675 356.961 56.6181 353.266 51.6862C349.666 46.6594 344.313 44.146 337.207 44.146C330.007 44.146 324.56 46.612 320.865 51.5439C317.17 56.4758 315.322 62.9727 315.322 71.0345Z" fill="#C6C6C8"/>
<path d="M404.484 109.304C397.378 109.304 391.552 107.265 387.004 103.187C382.551 99.0136 380.325 92.9436 380.325 84.9766V34.7564H394.252V81.1354C394.252 86.257 395.436 90.2879 397.804 93.2281C400.268 96.0734 404.01 97.4961 409.031 97.4961C415 97.4961 419.737 95.8363 423.242 92.5168C426.842 89.1972 428.643 84.7869 428.643 79.2859V34.7564H442.569V107.313H428.643V98.2074H428.358C426.179 101.432 423.1 104.088 419.121 106.174C415.142 108.261 410.263 109.304 404.484 109.304Z" fill="#C6C6C8"/>
<path d="M467.857 107.313H453.931V34.7564H467.857V48.5563H468.142C472.5 38.2183 478.989 33.0492 487.611 33.0492C489.979 33.0492 492.206 33.1915 494.29 33.476V46.8491C492.585 46.5646 491.022 46.4223 489.6 46.4223C483.253 46.4223 478.042 48.6037 473.968 52.9666C469.894 57.3294 467.857 62.9253 467.857 69.7541V107.313Z" fill="#C6C6C8"/>
<path d="M566.082 109.304C556.608 109.304 548.271 107.075 541.07 102.618C533.965 98.0652 528.422 91.8054 524.443 83.8385C520.559 75.7767 518.617 66.6716 518.617 56.5233C518.617 46.3749 520.559 37.2698 524.443 29.208C528.422 21.1462 534.012 14.8865 541.212 10.4288C548.413 5.87627 556.75 3.6 566.224 3.6C574.466 3.6 581.714 5.21236 587.967 8.43707C594.315 11.6618 599.336 16.0246 603.031 21.5256C606.726 27.0266 608.999 33.2389 609.852 40.1626H593.509C592.372 33.808 589.672 28.4018 585.409 23.9442C581.146 19.3916 574.656 17.1154 565.94 17.1154C555.423 17.1154 547.607 20.8617 542.491 28.3544C537.47 35.8471 534.959 45.1893 534.959 56.381C534.959 67.6675 537.47 77.0571 542.491 84.5498C547.607 92.0425 555.423 95.7889 565.94 95.7889C574.94 95.7889 581.619 93.3704 585.977 88.5333C590.43 83.6014 592.941 77.5313 593.509 70.3231H609.852C609.094 77.9107 606.868 84.6447 603.173 90.525C599.478 96.4054 594.457 101.005 588.109 104.325C581.761 107.644 574.419 109.304 566.082 109.304Z" fill="#C6C6C8"/>
<path d="M664.573 109.304C654.625 109.304 645.861 107.028 638.282 102.475C630.797 97.9229 624.971 91.6632 620.802 83.6962C616.729 75.6344 614.692 66.5294 614.692 56.381C614.692 46.2326 616.729 37.175 620.802 29.208C624.971 21.1462 630.797 14.8865 638.282 10.4288C645.861 5.87627 654.625 3.6 664.573 3.6C674.52 3.6 683.236 5.87627 690.721 10.4288C698.3 14.8865 704.127 21.1462 708.201 29.208C712.369 37.175 714.454 46.2326 714.454 56.381C714.454 66.5294 712.369 75.6344 708.201 83.6962C704.127 91.6632 698.3 97.9229 690.721 102.475C683.236 107.028 674.52 109.304 664.573 109.304ZM631.034 56.381C631.034 67.7623 633.782 77.1994 639.277 84.6921C644.866 92.09 653.298 95.7889 664.573 95.7889C675.847 95.7889 684.231 92.09 689.726 84.6921C695.316 77.1994 698.111 67.7623 698.111 56.381C698.111 44.9996 695.316 35.61 689.726 28.2122C684.231 20.8143 675.847 17.1154 664.573 17.1154C653.298 17.1154 644.866 20.8143 639.277 28.2122C633.782 35.61 631.034 44.9996 631.034 56.381Z" fill="#C6C6C8"/>
<path d="M770.362 109.304C760.414 109.304 751.651 107.028 744.072 102.475C736.587 97.9229 730.76 91.6632 726.592 83.6962C722.518 75.6344 720.481 66.5294 720.481 56.381C720.481 46.2326 722.518 37.175 726.592 29.208C730.76 21.1462 736.587 14.8865 744.072 10.4288C751.651 5.87627 760.414 3.6 770.362 3.6C780.31 3.6 789.026 5.87627 796.51 10.4288C804.09 14.8865 809.916 21.1462 813.99 29.208C818.159 37.175 820.243 46.2326 820.243 56.381C820.243 66.5294 818.159 75.6344 813.99 83.6962C809.916 91.6632 804.09 97.9229 796.51 102.475C789.026 107.028 780.31 109.304 770.362 109.304ZM736.824 56.381C736.824 67.7623 739.571 77.1994 745.066 84.6921C750.656 92.09 759.088 95.7889 770.362 95.7889C781.636 95.7889 790.021 92.09 795.516 84.6921C801.105 77.1994 803.9 67.7623 803.9 56.381C803.9 44.9996 801.105 35.61 795.516 28.2122C790.021 20.8143 781.636 17.1154 770.362 17.1154C759.088 17.1154 750.656 20.8143 745.066 28.2122C739.571 35.61 736.824 44.9996 736.824 56.381Z" fill="#C6C6C8"/>
<path d="M821.721 91.8054H837.211V107.313H821.721V91.8054Z" fill="#C6C6C8"/>
<path d="M0 140.745H15.6322V228.951H67.0764V242.466H0V140.745Z" fill="#C6C6C8"/>
<path d="M101.077 244.6C93.592 244.6 87.1496 242.94 81.7494 239.621C76.3492 236.301 72.228 231.749 69.3857 225.963C66.6383 220.178 65.2645 213.538 65.2645 206.046C65.2645 198.458 66.6856 191.772 69.5278 185.986C72.4648 180.201 76.6334 175.695 82.0336 172.471C87.4338 169.246 93.7815 167.634 101.077 167.634C111.972 167.634 120.404 170.953 126.372 177.592C132.436 184.231 135.467 193.242 135.467 204.623C135.467 207.374 135.42 209.128 135.325 209.887H79.6177C79.8072 216.431 81.7494 221.98 85.4443 226.532C89.2339 230.99 94.5394 233.219 101.361 233.219C107.045 233.219 111.403 231.843 114.435 229.093C117.561 226.342 119.551 223.355 120.404 220.13H134.615C132.53 227.528 128.693 233.456 123.104 237.913C117.514 242.371 110.172 244.6 101.077 244.6ZM120.972 198.932C120.972 193.147 119.077 188.405 115.288 184.706C111.593 180.912 106.714 179.015 100.65 179.015C94.7763 179.015 89.8971 180.864 86.0127 184.563C82.1284 188.167 79.9967 192.957 79.6177 198.932H120.972Z" fill="#C6C6C8"/>
<path d="M165.733 243.32C159.29 243.32 154.458 241.755 151.237 238.625C148.111 235.495 146.548 229.947 146.548 221.98V181.434H136.031V169.91H146.548V146.578H160.475V169.91H174.401V181.434H160.475V222.406C160.475 226.105 161.043 228.619 162.18 229.947C163.411 231.179 165.543 231.796 168.575 231.796C170.375 231.796 172.364 231.606 174.544 231.227V242.466C171.701 243.035 168.764 243.32 165.733 243.32Z" fill="#C6C6C8"/>
<path d="M236.011 244.458C229.853 244.458 224.311 242.94 219.384 239.905C214.457 236.775 210.573 232.318 207.731 226.532C204.889 220.747 203.468 213.965 203.468 206.188C203.468 198.411 204.889 191.629 207.731 185.844C210.573 180.058 214.457 175.601 219.384 172.471C224.311 169.341 229.853 167.776 236.011 167.776C241.316 167.776 245.769 168.819 249.369 170.906C253.064 172.898 256.049 175.506 258.322 178.73H258.607V140.745H272.534V242.466H258.607V233.93H258.322C255.954 236.965 252.922 239.478 249.227 241.47C245.627 243.462 241.222 244.458 236.011 244.458ZM217.963 206.188C217.963 213.776 219.716 220.13 223.221 225.252C226.726 230.373 231.748 232.934 238.285 232.934C244.538 232.934 249.464 230.563 253.064 225.821C256.664 220.984 258.465 214.439 258.465 206.188C258.465 197.936 256.664 191.44 253.064 186.697C249.464 181.86 244.538 179.442 238.285 179.442C231.748 179.442 226.726 182.003 223.221 187.124C219.716 192.246 217.963 198.6 217.963 206.188Z" fill="#C6C6C8"/>
<path d="M303.984 244.458C296.784 244.458 291.005 242.561 286.647 238.767C282.384 234.973 280.252 229.947 280.252 223.687C280.252 218.47 281.436 214.297 283.805 211.167C286.268 207.943 289.631 205.477 293.895 203.769C298.253 201.967 303.795 200.45 310.522 199.217C315.164 198.363 318.669 197.605 321.038 196.941C323.406 196.182 325.301 195.186 326.722 193.953C328.143 192.625 328.854 190.823 328.854 188.547C328.854 182.097 324.259 178.873 315.069 178.873C308.911 178.873 304.6 179.916 302.137 182.003C299.674 184.089 298.253 187.598 297.874 192.53H283.663C284.042 185.038 286.836 179.015 292.047 174.462C297.258 169.91 305.121 167.634 315.638 167.634C323.785 167.634 330.275 169.625 335.107 173.609C340.033 177.497 342.497 183.852 342.497 192.673V225.963C342.497 228.714 342.733 230.753 343.207 232.081C343.681 233.313 344.581 233.93 345.907 233.93L347.613 233.788V242.324C345.244 242.893 342.876 243.177 340.507 243.177C336.907 243.177 334.159 242.371 332.265 240.759C330.465 239.052 329.375 236.206 328.996 232.223H328.712C326.343 236.111 323.075 239.146 318.906 241.328C314.738 243.414 309.764 244.458 303.984 244.458ZM294.747 222.691C294.747 229.709 298.868 233.219 307.111 233.219C313.648 233.219 318.906 231.606 322.885 228.382C326.864 225.062 328.854 220.32 328.854 214.155V203.769C327.812 204.718 325.964 205.619 323.312 206.472C320.754 207.231 317.296 208.085 312.938 209.033C306.4 210.361 301.711 212.068 298.868 214.155C296.121 216.147 294.747 218.992 294.747 222.691Z" fill="#C6C6C8"/>
<path d="M377.667 243.32C371.225 243.32 366.393 241.755 363.172 238.625C360.045 235.495 358.482 229.947 358.482 221.98V181.434H347.966V169.91H358.482V146.578H372.409V169.91H386.336V181.434H372.409V222.406C372.409 226.105 372.977 228.619 374.114 229.947C375.346 231.179 377.477 231.796 380.509 231.796C382.309 231.796 384.299 231.606 386.478 231.227V242.466C383.636 243.035 380.699 243.32 377.667 243.32Z" fill="#C6C6C8"/>
<path d="M413.699 244.458C406.498 244.458 400.719 242.561 396.361 238.767C392.098 234.973 389.966 229.947 389.966 223.687C389.966 218.47 391.15 214.297 393.519 211.167C395.982 207.943 399.345 205.477 403.609 203.769C407.967 201.967 413.509 200.45 420.236 199.217C424.878 198.363 428.384 197.605 430.752 196.941C433.121 196.182 435.015 195.186 436.436 193.953C437.858 192.625 438.568 190.823 438.568 188.547C438.568 182.097 433.973 178.873 424.783 178.873C418.625 178.873 414.315 179.916 411.851 182.003C409.388 184.089 407.967 187.598 407.588 192.53H393.377C393.756 185.038 396.551 179.015 401.761 174.462C406.972 169.91 414.836 167.634 425.352 167.634C433.5 167.634 439.989 169.625 444.821 173.609C449.748 177.497 452.211 183.852 452.211 192.673V225.963C452.211 228.714 452.448 230.753 452.921 232.081C453.395 233.313 454.295 233.93 455.621 233.93L457.327 233.788V242.324C454.958 242.893 452.59 243.177 450.221 243.177C446.621 243.177 443.874 242.371 441.979 240.759C440.179 239.052 439.089 236.206 438.71 232.223H438.426C436.058 236.111 432.789 239.146 428.62 241.328C424.452 243.414 419.478 244.458 413.699 244.458ZM404.461 222.691C404.461 229.709 408.583 233.219 416.825 233.219C423.362 233.219 428.62 231.606 432.599 228.382C436.579 225.062 438.568 220.32 438.568 214.155V203.769C437.526 204.718 435.679 205.619 433.026 206.472C430.468 207.231 427.01 208.085 422.652 209.033C416.115 210.361 411.425 212.068 408.583 214.155C405.835 216.147 404.461 218.992 404.461 222.691Z" fill="#C6C6C8"/>
<path d="M533.816 195.945C533.816 190.539 532.916 186.508 531.116 183.852C529.41 181.102 526.094 179.726 521.168 179.726C516.052 179.726 511.931 181.386 508.804 184.706C505.773 188.025 504.257 192.435 504.257 197.936V242.466H490.33V169.91H504.257V179.015H504.541C506.815 175.79 509.704 173.135 513.21 171.048C516.715 168.867 520.979 167.776 526 167.776C535.853 167.776 542.248 171.997 545.185 180.438H545.469C551.817 171.997 559.727 167.776 569.202 167.776C576.402 167.776 581.849 169.862 585.544 174.036C589.334 178.209 591.229 184.231 591.229 192.104V242.466H577.302V195.945C577.302 190.539 576.402 186.508 574.602 183.852C572.896 181.102 569.581 179.726 564.654 179.726C559.538 179.726 555.417 181.386 552.29 184.706C549.259 188.025 547.743 192.435 547.743 197.936V242.466H533.816V195.945Z" fill="#C6C6C8"/>
<path d="M622.263 244.458C615.063 244.458 609.284 242.561 604.926 238.767C600.662 234.973 598.531 229.947 598.531 223.687C598.531 218.47 599.715 214.297 602.084 211.167C604.547 207.943 607.91 205.477 612.174 203.769C616.532 201.967 622.074 200.45 628.8 199.217C633.443 198.363 636.948 197.605 639.317 196.941C641.685 196.182 643.58 195.186 645.001 193.953C646.422 192.625 647.133 190.823 647.133 188.547C647.133 182.097 642.538 178.873 633.348 178.873C627.19 178.873 622.879 179.916 620.416 182.003C617.953 184.089 616.532 187.598 616.153 192.53H601.942C602.32 185.038 605.115 179.015 610.326 174.462C615.537 169.91 623.4 167.634 633.917 167.634C642.064 167.634 648.554 169.625 653.386 173.609C658.312 177.497 660.776 183.852 660.776 192.673V225.963C660.776 228.714 661.012 230.753 661.486 232.081C661.96 233.313 662.86 233.93 664.186 233.93L665.891 233.788V242.324C663.523 242.893 661.154 243.177 658.786 243.177C655.186 243.177 652.438 242.371 650.544 240.759C648.743 239.052 647.654 236.206 647.275 232.223H646.991C644.622 236.111 641.354 239.146 637.185 241.328C633.016 243.414 628.043 244.458 622.263 244.458ZM613.026 222.691C613.026 229.709 617.147 233.219 625.39 233.219C631.927 233.219 637.185 231.606 641.164 228.382C645.143 225.062 647.133 220.32 647.133 214.155V203.769C646.091 204.718 644.243 205.619 641.591 206.472C639.033 207.231 635.574 208.085 631.216 209.033C624.679 210.361 619.99 212.068 617.147 214.155C614.4 216.147 613.026 218.992 613.026 222.691Z" fill="#C6C6C8"/>
<path d="M673.459 140.745H687.386V200.64L719.077 169.91H735.135L707.281 196.514L738.119 242.466H721.635L697.902 205.334L687.386 215.435V242.466H673.459V140.745Z" fill="#C6C6C8"/>
<path d="M768.066 244.6C760.582 244.6 754.139 242.94 748.739 239.621C743.339 236.301 739.217 231.749 736.375 225.963C733.628 220.178 732.254 213.538 732.254 206.046C732.254 198.458 733.675 191.772 736.517 185.986C739.454 180.201 743.623 175.695 749.023 172.471C754.423 169.246 760.771 167.634 768.066 167.634C778.961 167.634 787.393 170.953 793.362 177.592C799.425 184.231 802.457 193.242 802.457 204.623C802.457 207.374 802.41 209.128 802.315 209.887H746.607C746.797 216.431 748.739 221.98 752.434 226.532C756.223 230.99 761.529 233.219 768.35 233.219C774.035 233.219 778.393 231.843 781.424 229.093C784.551 226.342 786.54 223.355 787.393 220.13H801.604C799.52 227.528 795.683 233.456 790.093 237.913C784.504 242.371 777.161 244.6 768.066 244.6ZM787.962 198.932C787.962 193.147 786.067 188.405 782.277 184.706C778.582 180.912 773.703 179.015 767.64 179.015C761.766 179.015 756.887 180.864 753.002 184.563C749.118 188.167 746.986 192.957 746.607 198.932H787.962Z" fill="#C6C6C8"/>
<path d="M859.268 243.32C852.826 243.32 847.994 241.755 844.773 238.625C841.646 235.495 840.083 229.947 840.083 221.98V181.434H829.567V169.91H840.083V146.578H854.01V169.91H867.937V181.434H854.01V222.406C854.01 226.105 854.578 228.619 855.715 229.947C856.947 231.179 859.079 231.796 862.11 231.796C863.91 231.796 865.9 231.606 868.079 231.227V242.466C865.237 243.035 862.3 243.32 859.268 243.32Z" fill="#C6C6C8"/>
<path d="M923.58 195.945C923.58 190.823 922.348 186.84 919.885 183.994C917.517 181.149 913.822 179.726 908.8 179.726C902.832 179.726 898.047 181.386 894.447 184.706C890.942 188.025 889.189 192.435 889.189 197.936V242.466H875.262V140.745H889.189V179.015H889.473C891.652 175.79 894.731 173.135 898.711 171.048C902.69 168.867 907.569 167.776 913.348 167.776C920.453 167.776 926.233 169.862 930.685 174.036C935.233 178.114 937.507 184.137 937.507 192.104V242.466H923.58V195.945Z" fill="#C6C6C8"/>
<path d="M980.417 244.6C972.932 244.6 966.49 242.94 961.089 239.621C955.689 236.301 951.568 231.749 948.726 225.963C945.978 220.178 944.605 213.538 944.605 206.046C944.605 198.458 946.026 191.772 948.868 185.986C951.805 180.201 955.974 175.695 961.374 172.471C966.774 169.246 973.122 167.634 980.417 167.634C991.312 167.634 999.744 170.953 1005.71 177.592C1011.78 184.231 1014.81 193.242 1014.81 204.623C1014.81 207.374 1014.76 209.128 1014.67 209.887H958.958C959.147 216.431 961.089 221.98 964.784 226.532C968.574 230.99 973.88 233.219 980.701 233.219C986.385 233.219 990.743 231.843 993.775 229.093C996.901 226.342 998.891 223.355 999.744 220.13H1013.95C1011.87 227.528 1008.03 233.456 1002.44 237.913C996.854 242.371 989.512 244.6 980.417 244.6ZM1000.31 198.932C1000.31 193.147 998.417 188.405 994.628 184.706C990.933 180.912 986.054 179.015 979.99 179.015C974.116 179.015 969.237 180.864 965.353 184.563C961.468 188.167 959.337 192.957 958.958 198.932H1000.31Z" fill="#C6C6C8"/>
<path d="M1079.58 244.6C1072.47 244.6 1066.22 242.988 1060.82 239.763C1055.42 236.538 1051.25 232.033 1048.31 226.248C1045.38 220.367 1043.91 213.681 1043.91 206.188C1043.91 198.695 1045.38 192.056 1048.31 186.271C1051.25 180.39 1055.37 175.838 1060.68 172.613C1066.08 169.388 1072.33 167.776 1079.43 167.776C1085.5 167.776 1090.9 169.009 1095.64 171.475C1100.37 173.846 1104.16 177.213 1107 181.576C1109.85 185.844 1111.55 190.728 1112.12 196.229H1097.77C1097.29 191.677 1095.64 187.741 1092.79 184.421C1089.95 181.007 1085.55 179.3 1079.58 179.3C1072.38 179.3 1067.02 181.908 1063.52 187.124C1060.11 192.246 1058.4 198.6 1058.4 206.188C1058.4 213.776 1060.11 220.13 1063.52 225.252C1067.02 230.373 1072.38 232.934 1079.58 232.934C1085.64 232.934 1090.09 231.274 1092.94 227.955C1095.78 224.635 1097.39 220.509 1097.77 215.578H1112.12C1111.84 221.079 1110.27 226.058 1107.43 230.516C1104.59 234.878 1100.75 238.34 1095.92 240.901C1091.09 243.367 1085.64 244.6 1079.58 244.6Z" fill="#C6C6C8"/>
<path d="M1139.01 244.458C1131.81 244.458 1126.04 242.561 1121.68 238.767C1117.41 234.973 1115.28 229.947 1115.28 223.687C1115.28 218.47 1116.47 214.297 1118.84 211.167C1121.3 207.943 1124.66 205.477 1128.93 203.769C1133.28 201.967 1138.83 200.45 1145.55 199.217C1150.19 198.363 1153.7 197.605 1156.07 196.941C1158.44 196.182 1160.33 195.186 1161.75 193.953C1163.17 192.625 1163.88 190.823 1163.88 188.547C1163.88 182.097 1159.29 178.873 1150.1 178.873C1143.94 178.873 1139.63 179.916 1137.17 182.003C1134.7 184.089 1133.28 187.598 1132.9 192.53H1118.69C1119.07 185.038 1121.87 179.015 1127.08 174.462C1132.29 169.91 1140.15 167.634 1150.67 167.634C1158.82 167.634 1165.31 169.625 1170.14 173.609C1175.06 177.497 1177.53 183.852 1177.53 192.673V225.963C1177.53 228.714 1177.76 230.753 1178.24 232.081C1178.71 233.313 1179.61 233.93 1180.94 233.93L1182.64 233.788V242.324C1180.27 242.893 1177.91 243.177 1175.54 243.177C1171.94 243.177 1169.19 242.371 1167.29 240.759C1165.49 239.052 1164.41 236.206 1164.03 232.223H1163.74C1161.37 236.111 1158.11 239.146 1153.94 241.328C1149.77 243.414 1144.79 244.458 1139.01 244.458ZM1129.78 222.691C1129.78 229.709 1133.9 233.219 1142.14 233.219C1148.68 233.219 1153.94 231.606 1157.92 228.382C1161.89 225.062 1163.88 220.32 1163.88 214.155V203.769C1162.84 204.718 1160.99 205.619 1158.34 206.472C1155.78 207.231 1152.33 208.085 1147.97 209.033C1141.43 210.361 1136.74 212.068 1133.9 214.155C1131.15 216.147 1129.78 218.992 1129.78 222.691Z" fill="#C6C6C8"/>
<path d="M1190.21 140.745H1204.14V242.466H1190.21V140.745Z" fill="#C6C6C8"/>
<path d="M1215.51 140.745H1229.43V242.466H1215.51V140.745Z" fill="#C6C6C8"/>
<path d="M1269.37 244.458C1258.76 244.458 1250.56 242.039 1244.78 237.202C1239.1 232.365 1236.16 226.058 1235.97 218.281H1250.04C1250.33 222.833 1251.98 226.485 1255.02 229.235C1258.14 231.891 1262.88 233.219 1269.23 233.219C1274.82 233.219 1278.8 232.223 1281.16 230.231C1283.53 228.144 1284.72 225.584 1284.72 222.549C1284.72 219.703 1283.86 217.522 1282.16 216.004C1280.45 214.487 1278.61 213.491 1276.62 213.017C1274.72 212.448 1271.07 211.594 1265.67 210.456C1260.08 209.128 1255.44 207.753 1251.75 206.33C1248.05 204.908 1244.93 202.774 1242.37 199.928C1239.81 197.083 1238.53 193.337 1238.53 188.689C1238.53 182.335 1240.95 177.26 1245.78 173.467C1250.7 169.673 1257.48 167.776 1266.1 167.776C1275.57 167.776 1282.87 169.957 1287.99 174.32C1293.1 178.683 1295.94 184.231 1296.51 190.965H1282.44C1281.78 187.456 1280.26 184.611 1277.9 182.429C1275.62 180.153 1271.78 179.015 1266.38 179.015C1261.84 179.015 1258.47 179.821 1256.29 181.434C1254.12 183.046 1253.03 185.275 1253.03 188.12C1253.03 190.207 1253.64 191.866 1254.87 193.099C1256.1 194.332 1257.67 195.281 1259.56 195.945C1261.46 196.514 1264.25 197.178 1267.95 197.936C1268.71 198.031 1269.84 198.268 1271.36 198.648C1277.14 199.976 1281.92 201.398 1285.71 202.916C1289.5 204.433 1292.67 206.71 1295.23 209.745C1297.89 212.78 1299.21 216.811 1299.21 221.837C1299.21 228.951 1296.61 234.499 1291.4 238.483C1286.18 242.466 1278.84 244.458 1269.37 244.458Z" fill="#C6C6C8"/>
<path d="M1304.51 226.959H1320V242.466H1304.51V226.959Z" fill="#C6C6C8"/>
<path d="M827.92 5.88H819.6V0H843.4V5.88H835.12V28.6H827.92V5.88Z" fill="#C6C6C8"/>
<path d="M845.2 0H854L859.88 18.24H859.96L865.84 0H874.64V28.6H867.84V10.8H867.76L862.44 28.6H857.4L852.08 10.8H852V28.6H845.2V0Z" fill="#C6C6C8"/>
</svg>
