<svg width="377" height="313" viewBox="0 0 377 313" fill="none" xmlns="http://www.w3.org/2000/svg">
<path d="M3.06843 0H46.5525V8.35165H12.7121V27.2527H40.065V35.6044H12.7121V62.8571H3.06843V0Z" fill="#C6C6C8"/>
<path d="M50.1476 18.022H58.7392V62.8571H50.1476V18.022ZM49.6216 0.703298H59.3529V10.022H49.6216V0.703298Z" fill="#C6C6C8"/>
<path d="M74.3451 62.8571H65.7535V18.022H74.3451V26.5494H74.5204C77.209 20.1612 81.2125 16.967 86.5312 16.967C87.9923 16.967 89.3658 17.0549 90.6516 17.2308V25.4945C89.5996 25.3187 88.6352 25.2308 87.7585 25.2308C83.8426 25.2308 80.6281 26.5788 78.1149 29.2747C75.6017 31.9707 74.3451 35.4286 74.3451 39.6484V62.8571Z" fill="#C6C6C8"/>
<path d="M111.532 64.1758C106.915 64.1758 102.94 63.1502 99.609 61.0989C96.2775 59.0476 93.7351 56.2344 91.9817 52.6593C90.2868 49.0842 89.4393 44.9817 89.4393 40.3517C89.4393 35.663 90.316 31.5311 92.0694 27.956C93.8812 24.381 96.4529 21.5971 99.7843 19.6044C103.116 17.6117 107.032 16.6154 111.532 16.6154C118.253 16.6154 123.455 18.6667 127.137 22.7692C130.878 26.8718 132.748 32.4396 132.748 39.4725C132.748 41.1722 132.719 42.2564 132.66 42.7253H98.2939C98.4108 46.7692 99.609 50.1978 101.888 53.011C104.226 55.7656 107.499 57.1429 111.707 57.1429C115.214 57.1429 117.903 56.293 119.773 54.5934C121.702 52.8938 122.929 51.0476 123.455 49.0549H132.222C130.936 53.6264 128.569 57.2894 125.121 60.044C121.672 62.7985 117.143 64.1758 111.532 64.1758ZM123.806 35.956C123.806 32.381 122.637 29.4505 120.299 27.1648C118.02 24.8205 115.01 23.6484 111.269 23.6484C107.645 23.6484 104.635 24.7912 102.239 27.0769C99.8428 29.304 98.5277 32.2637 98.2939 35.956H123.806Z" fill="#C6C6C8"/>
<path d="M156.798 78.5934C155.22 78.5934 153.379 78.3883 151.275 77.978V70.9451C152.795 71.1209 154.022 71.2088 154.957 71.2088C156.944 71.2088 158.756 70.5348 160.393 69.1868C162.088 67.8974 163.344 65.641 164.162 62.4176L146.103 18.022H155.483L168.546 52.3077H168.721L180.995 18.022H190.025L172.316 63.9121C170.212 69.3626 167.961 73.1722 165.565 75.3407C163.227 77.5092 160.305 78.5934 156.798 78.5934Z" fill="#C6C6C8"/>
<path d="M211.007 64.1758C206.448 64.1758 202.474 63.1795 199.084 61.1868C195.694 59.1941 193.093 56.4103 191.281 52.8352C189.528 49.2601 188.651 45.1282 188.651 40.4396C188.651 35.7509 189.557 31.619 191.369 28.044C193.181 24.4689 195.752 21.685 199.084 19.6923C202.474 17.641 206.477 16.6154 211.094 16.6154C215.653 16.6154 219.598 17.6117 222.93 19.6044C226.32 21.5971 228.891 24.4103 230.645 28.044C232.457 31.619 233.362 35.7216 233.362 40.3517C233.362 45.0403 232.457 49.2015 230.645 52.8352C228.833 56.4103 226.232 59.1941 222.842 61.1868C219.511 63.1795 215.566 64.1758 211.007 64.1758ZM197.593 40.4396C197.593 45.3626 198.733 49.3773 201.012 52.4835C203.292 55.5311 206.652 57.0549 211.094 57.0549C215.478 57.0549 218.78 55.5311 221.001 52.4835C223.28 49.3773 224.42 45.3626 224.42 40.4396C224.42 35.5165 223.28 31.5311 221.001 28.4835C218.78 25.3773 215.478 23.8242 211.094 23.8242C206.652 23.8242 203.292 25.348 201.012 28.3956C198.733 31.4432 197.593 35.4579 197.593 40.4396Z" fill="#C6C6C8"/>
<path d="M252.598 64.0879C248.214 64.0879 244.62 62.8278 241.814 60.3077C239.067 57.7289 237.694 53.978 237.694 49.0549V18.022H246.285V46.6813C246.285 49.8462 247.016 52.337 248.477 54.1538C249.997 55.9121 252.305 56.7912 255.403 56.7912C259.085 56.7912 262.008 55.7656 264.17 53.7143C266.391 51.663 267.502 48.9377 267.502 45.5385V18.022H276.093V62.8571H267.502V57.2308H267.326C265.982 59.2234 264.082 60.8645 261.628 62.1538C259.173 63.4432 256.163 64.0879 252.598 64.0879Z" fill="#C6C6C8"/>
<path d="M291.693 62.8571H283.102V18.022H291.693V26.5494H291.869C294.557 20.1612 298.561 16.967 303.88 16.967C305.341 16.967 306.714 17.0549 308 17.2308V25.4945C306.948 25.3187 305.984 25.2308 305.107 25.2308C301.191 25.2308 297.976 26.5788 295.463 29.2747C292.95 31.9707 291.693 35.4286 291.693 39.6484V62.8571Z" fill="#C6C6C8"/>
<path d="M29.2816 152C23.437 152 18.2937 150.623 13.8518 147.868C9.4683 145.055 6.04919 141.187 3.59445 136.264C1.19815 131.282 0 125.656 0 119.385C0 113.114 1.19815 107.487 3.59445 102.505C6.04919 97.5238 9.49753 93.6557 13.9394 90.9011C18.3814 88.0879 23.5246 86.6813 29.3693 86.6813C34.4541 86.6813 38.9252 87.6777 42.7827 89.6703C46.6986 91.663 49.7963 94.359 52.0757 97.7582C54.3551 101.158 55.7578 104.996 56.2838 109.275H46.2018C45.5005 105.348 43.8347 102.007 41.2047 99.2527C38.5746 96.4396 34.571 95.033 29.1939 95.033C22.7064 95.033 17.8846 97.348 14.7285 101.978C11.6308 106.608 10.082 112.381 10.082 119.297C10.082 126.271 11.6308 132.073 14.7285 136.703C17.8846 141.333 22.7064 143.648 29.1939 143.648C34.7463 143.648 38.8668 142.154 41.5553 139.165C44.3023 136.117 45.8511 132.366 46.2018 127.912H56.2838C55.8162 132.601 54.4427 136.762 52.1633 140.396C49.8839 144.029 46.7863 146.872 42.8704 148.923C38.9545 150.974 34.4249 152 29.2816 152Z" fill="#C6C6C8"/>
<path d="M90.0414 152C83.9045 152 78.4982 150.593 73.8225 147.78C69.2052 144.967 65.6108 141.099 63.0392 136.176C60.526 131.194 59.2694 125.568 59.2694 119.297C59.2694 113.026 60.526 107.429 63.0392 102.505C65.6108 97.5238 69.2052 93.6557 73.8225 90.9011C78.4982 88.0879 83.9045 86.6813 90.0414 86.6813C96.1782 86.6813 101.555 88.0879 106.173 90.9011C110.848 93.6557 114.443 97.5238 116.956 102.505C119.528 107.429 120.813 113.026 120.813 119.297C120.813 125.568 119.528 131.194 116.956 136.176C114.443 141.099 110.848 144.967 106.173 147.78C101.555 150.593 96.1782 152 90.0414 152ZM69.3514 119.297C69.3514 126.33 71.0463 132.161 74.4362 136.791C77.8845 141.363 83.0862 143.648 90.0414 143.648C96.9965 143.648 102.169 141.363 105.559 136.791C109.007 132.161 110.731 126.33 110.731 119.297C110.731 112.264 109.007 106.462 105.559 101.89C102.169 97.3187 96.9965 95.033 90.0414 95.033C83.0862 95.033 77.8845 97.3187 74.4362 101.89C71.0463 106.462 69.3514 112.264 69.3514 119.297Z" fill="#C6C6C8"/>
<path d="M155.304 152C149.167 152 143.761 150.593 139.085 147.78C134.468 144.967 130.873 141.099 128.302 136.176C125.788 131.194 124.532 125.568 124.532 119.297C124.532 113.026 125.788 107.429 128.302 102.505C130.873 97.5238 134.468 93.6557 139.085 90.9011C143.761 88.0879 149.167 86.6813 155.304 86.6813C161.441 86.6813 166.818 88.0879 171.435 90.9011C176.111 93.6557 179.705 97.5238 182.218 102.505C184.79 107.429 186.076 113.026 186.076 119.297C186.076 125.568 184.79 131.194 182.218 136.176C179.705 141.099 176.111 144.967 171.435 147.78C166.818 150.593 161.441 152 155.304 152ZM134.614 119.297C134.614 126.33 136.309 132.161 139.699 136.791C143.147 141.363 148.349 143.648 155.304 143.648C162.259 143.648 167.431 141.363 170.821 136.791C174.27 132.161 175.994 126.33 175.994 119.297C175.994 112.264 174.27 106.462 170.821 101.89C167.431 97.3187 162.259 95.033 155.304 95.033C148.349 95.033 143.147 97.3187 139.699 101.89C136.309 106.462 134.614 112.264 134.614 119.297Z" fill="#C6C6C8"/>
<path d="M163.456 199H170.742V239.855H194.719V246.116H163.456V199Z" fill="#C6C6C8"/>
<path d="M210.565 247.104C207.077 247.104 204.074 246.335 201.557 244.798C199.04 243.26 197.12 241.151 195.795 238.472C194.514 235.792 193.874 232.717 193.874 229.246C193.874 225.732 194.536 222.635 195.861 219.955C197.23 217.275 199.173 215.188 201.69 213.695C204.207 212.201 207.165 211.454 210.565 211.454C215.643 211.454 219.573 212.992 222.355 216.067C225.181 219.142 226.594 223.316 226.594 228.587C226.594 229.861 226.572 230.674 226.528 231.025H200.564C200.652 234.057 201.557 236.627 203.279 238.735C205.046 240.8 207.518 241.832 210.698 241.832C213.347 241.832 215.378 241.195 216.791 239.921C218.248 238.647 219.176 237.264 219.573 235.77H226.196C225.225 239.197 223.437 241.942 220.831 244.007C218.226 246.072 214.804 247.104 210.565 247.104ZM219.838 225.951C219.838 223.272 218.955 221.075 217.189 219.362C215.467 217.605 213.192 216.726 210.366 216.726C207.629 216.726 205.355 217.583 203.544 219.296C201.734 220.965 200.74 223.184 200.564 225.951H219.838Z" fill="#C6C6C8"/>
<path d="M240.7 246.511C237.697 246.511 235.445 245.786 233.944 244.336C232.487 242.887 231.758 240.317 231.758 236.627V217.846H226.857V212.509H231.758V201.702H238.249V212.509H244.74V217.846H238.249V236.824C238.249 238.538 238.514 239.702 239.044 240.317C239.618 240.888 240.611 241.173 242.024 241.173C242.863 241.173 243.791 241.086 244.806 240.91V246.116C243.482 246.379 242.113 246.511 240.7 246.511Z" fill="#C6C6C8"/>
<path d="M273.455 247.038C270.585 247.038 268.002 246.335 265.705 244.929C263.409 243.48 261.599 241.415 260.274 238.735C258.949 236.055 258.287 232.914 258.287 229.312C258.287 225.71 258.949 222.569 260.274 219.889C261.599 217.209 263.409 215.145 265.705 213.695C268.002 212.245 270.585 211.52 273.455 211.52C275.928 211.52 278.003 212.003 279.681 212.97C281.403 213.892 282.794 215.101 283.854 216.594H283.986V199H290.477V246.116H283.986V242.162H283.854C282.75 243.568 281.337 244.732 279.615 245.654C277.937 246.577 275.883 247.038 273.455 247.038ZM265.043 229.312C265.043 232.827 265.86 235.77 267.494 238.142C269.127 240.514 271.468 241.701 274.515 241.701C277.429 241.701 279.725 240.602 281.403 238.406C283.081 236.165 283.92 233.134 283.92 229.312C283.92 225.49 283.081 222.481 281.403 220.284C279.725 218.044 277.429 216.924 274.515 216.924C271.468 216.924 269.127 218.11 267.494 220.482C265.86 222.854 265.043 225.798 265.043 229.312Z" fill="#C6C6C8"/>
<path d="M305.136 247.038C301.78 247.038 299.086 246.16 297.055 244.402C295.068 242.645 294.074 240.317 294.074 237.417C294.074 235.001 294.626 233.068 295.73 231.618C296.878 230.125 298.446 228.983 300.433 228.192C302.464 227.357 305.047 226.654 308.182 226.083C310.346 225.688 311.98 225.336 313.084 225.029C314.188 224.677 315.071 224.216 315.733 223.645C316.395 223.03 316.727 222.195 316.727 221.141C316.727 218.154 314.585 216.66 310.302 216.66C307.432 216.66 305.423 217.143 304.275 218.11C303.126 219.076 302.464 220.702 302.288 222.986H295.664C295.841 219.516 297.143 216.726 299.572 214.617C302 212.509 305.665 211.454 310.567 211.454C314.364 211.454 317.389 212.377 319.641 214.222C321.937 216.023 323.085 218.966 323.085 223.052V238.472C323.085 239.746 323.196 240.69 323.416 241.305C323.637 241.876 324.057 242.162 324.675 242.162L325.47 242.096V246.05C324.366 246.313 323.262 246.445 322.158 246.445C320.48 246.445 319.199 246.072 318.316 245.325C317.477 244.534 316.97 243.216 316.793 241.371H316.66C315.556 243.172 314.033 244.578 312.09 245.588C310.147 246.555 307.829 247.038 305.136 247.038ZM300.83 236.956C300.83 240.207 302.751 241.832 306.593 241.832C309.64 241.832 312.09 241.086 313.945 239.592C315.799 238.054 316.727 235.858 316.727 233.002V228.192C316.241 228.631 315.38 229.049 314.143 229.444C312.951 229.795 311.34 230.191 309.308 230.63C306.262 231.245 304.076 232.036 302.751 233.002C301.471 233.925 300.83 235.243 300.83 236.956Z" fill="#C6C6C8"/>
<path d="M339.477 246.511C336.475 246.511 334.223 245.786 332.721 244.336C331.264 242.887 330.535 240.317 330.535 236.627V217.846H325.634V212.509H330.535V201.702H337.026V212.509H343.517V217.846H337.026V236.824C337.026 238.538 337.291 239.702 337.821 240.317C338.395 240.888 339.389 241.173 340.802 241.173C341.641 241.173 342.568 241.086 343.584 240.91V246.116C342.259 246.379 340.89 246.511 339.477 246.511Z" fill="#C6C6C8"/>
<path d="M356.271 247.038C352.915 247.038 350.221 246.16 348.19 244.402C346.203 242.645 345.21 240.317 345.21 237.417C345.21 235.001 345.761 233.068 346.865 231.618C348.013 230.125 349.581 228.983 351.568 228.192C353.599 227.357 356.182 226.654 359.318 226.083C361.481 225.688 363.115 225.336 364.219 225.029C365.323 224.677 366.206 224.216 366.868 223.645C367.531 223.03 367.862 222.195 367.862 221.141C367.862 218.154 365.72 216.66 361.437 216.66C358.567 216.66 356.558 217.143 355.41 218.11C354.262 219.076 353.599 220.702 353.423 222.986H346.799C346.976 219.516 348.278 216.726 350.707 214.617C353.136 212.509 356.801 211.454 361.702 211.454C365.499 211.454 368.524 212.377 370.776 214.222C373.072 216.023 374.22 218.966 374.22 223.052V238.472C374.22 239.746 374.331 240.69 374.551 241.305C374.772 241.876 375.192 242.162 375.81 242.162L376.605 242.096V246.05C375.501 246.313 374.397 246.445 373.293 246.445C371.615 246.445 370.334 246.072 369.451 245.325C368.612 244.534 368.105 243.216 367.928 241.371H367.795C366.692 243.172 365.168 244.578 363.225 245.588C361.282 246.555 358.964 247.038 356.271 247.038ZM351.965 236.956C351.965 240.207 353.886 241.832 357.728 241.832C360.775 241.832 363.225 241.086 365.08 239.592C366.934 238.054 367.862 235.858 367.862 233.002V228.192C367.376 228.631 366.515 229.049 365.279 229.444C364.086 229.795 362.475 230.191 360.443 230.63C357.397 231.245 355.211 232.036 353.886 233.002C352.606 233.925 351.965 235.243 351.965 236.956Z" fill="#C6C6C8"/>
<path d="M20.2678 290.464C20.2678 287.96 19.8483 286.092 19.0093 284.862C18.2145 283.588 16.669 282.951 14.3729 282.951C11.9884 282.951 10.0676 283.72 8.61048 285.258C7.19748 286.795 6.49098 288.838 6.49098 291.386V312.012H0V278.405H6.49098V282.622H6.62345C7.6832 281.128 9.02997 279.898 10.6638 278.932C12.2975 277.921 14.2846 277.416 16.6249 277.416C21.2171 277.416 24.1977 279.371 25.5665 283.281H25.699C28.6575 279.371 32.3445 277.416 36.7601 277.416C40.116 277.416 42.655 278.383 44.3771 280.316C46.1434 282.249 47.0265 285.038 47.0265 288.684V312.012H40.5355V290.464C40.5355 287.96 40.116 286.092 39.2771 284.862C38.4822 283.588 36.9368 282.951 34.6406 282.951C32.2562 282.951 30.3354 283.72 28.8782 285.258C27.4652 286.795 26.7587 288.838 26.7587 291.386V312.012H20.2678V290.464Z" fill="#C6C6C8"/>
<path d="M61.491 312.934C58.1351 312.934 55.4415 312.055 53.4104 310.298C51.4233 308.541 50.4298 306.213 50.4298 303.313C50.4298 300.897 50.9818 298.964 52.0857 297.514C53.2337 296.021 54.8013 294.879 56.7883 294.088C58.8195 293.253 61.4027 292.55 64.5378 291.979C66.7014 291.584 68.3352 291.232 69.4391 290.925C70.543 290.573 71.4261 290.112 72.0885 289.541C72.7508 288.926 73.082 288.091 73.082 287.037C73.082 284.05 70.9404 282.556 66.6573 282.556C63.7871 282.556 61.778 283.039 60.6299 284.006C59.4819 284.972 58.8195 286.598 58.6429 288.882H52.0194C52.1961 285.412 53.4987 282.622 55.9273 280.513C58.3559 278.405 62.0208 277.35 66.9222 277.35C70.7196 277.35 73.7444 278.273 75.9963 280.118C78.2925 281.919 79.4405 284.862 79.4405 288.948V304.368C79.4405 305.642 79.5509 306.586 79.7717 307.201C79.9925 307.772 80.412 308.058 81.0301 308.058L81.825 307.992V311.946C80.7211 312.209 79.6171 312.341 78.5132 312.341C76.8353 312.341 75.5548 311.968 74.6716 311.221C73.8327 310.43 73.3249 309.112 73.1482 307.267H73.0158C71.9119 309.068 70.3885 310.474 68.4456 311.484C66.5027 312.451 64.1845 312.934 61.491 312.934ZM57.1857 302.852C57.1857 306.103 59.1065 307.728 62.9481 307.728C65.9949 307.728 68.4456 306.981 70.3002 305.488C72.1547 303.95 73.082 301.754 73.082 298.898V294.088C72.5963 294.527 71.7352 294.944 70.4989 295.34C69.3066 295.691 67.6949 296.087 65.6637 296.526C62.617 297.141 60.4312 297.932 59.1065 298.898C57.826 299.821 57.1857 301.139 57.1857 302.852Z" fill="#C6C6C8"/>
<path d="M85.3519 264.896H91.8429V292.638L106.613 278.405H114.098L101.116 290.727L115.489 312.012H107.805L96.7443 294.813L91.8429 299.491V312.012H85.3519V264.896Z" fill="#C6C6C8"/>
<path d="M129.446 313C125.958 313 122.955 312.231 120.438 310.694C117.921 309.156 116 307.047 114.676 304.368C113.395 301.688 112.755 298.613 112.755 295.142C112.755 291.628 113.417 288.531 114.742 285.851C116.111 283.171 118.054 281.084 120.571 279.591C123.087 278.097 126.046 277.35 129.446 277.35C134.524 277.35 138.454 278.888 141.236 281.963C144.062 285.038 145.475 289.212 145.475 294.483C145.475 295.757 145.453 296.57 145.409 296.921H119.445C119.533 299.953 120.438 302.523 122.16 304.631C123.926 306.696 126.399 307.728 129.578 307.728C132.228 307.728 134.259 307.091 135.672 305.817C137.129 304.543 138.056 303.16 138.454 301.666H145.077C144.106 305.092 142.318 307.838 139.712 309.903C137.107 311.968 133.685 313 129.446 313ZM138.719 291.847C138.719 289.168 137.836 286.971 136.069 285.258C134.347 283.501 132.073 282.622 129.247 282.622C126.51 282.622 124.236 283.479 122.425 285.192C120.615 286.861 119.621 289.08 119.445 291.847H138.719Z" fill="#C6C6C8"/>
<path d="M171.953 312.407C168.95 312.407 166.698 311.682 165.197 310.232C163.74 308.783 163.011 306.213 163.011 302.523V283.742H158.11V278.405H163.011V267.598H169.502V278.405H175.993V283.742H169.502V302.72C169.502 304.434 169.767 305.598 170.297 306.213C170.871 306.784 171.865 307.069 173.278 307.069C174.117 307.069 175.044 306.982 176.06 306.806V312.012C174.735 312.275 173.366 312.407 171.953 312.407Z" fill="#C6C6C8"/>
<path d="M201.927 290.464C201.927 288.091 201.353 286.246 200.205 284.928C199.101 283.61 197.379 282.951 195.039 282.951C192.257 282.951 190.027 283.72 188.349 285.258C186.715 286.795 185.898 288.838 185.898 291.386V312.012H179.408V264.896H185.898V282.622H186.031C187.047 281.128 188.482 279.898 190.336 278.932C192.191 277.921 194.465 277.416 197.158 277.416C200.47 277.416 203.164 278.383 205.239 280.316C207.358 282.205 208.418 284.994 208.418 288.684V312.012H201.927V290.464Z" fill="#C6C6C8"/>
<path d="M228.417 313C224.929 313 221.926 312.231 219.41 310.694C216.893 309.156 214.972 307.047 213.647 304.368C212.367 301.688 211.726 298.613 211.726 295.142C211.726 291.628 212.389 288.531 213.713 285.851C215.082 283.171 217.025 281.084 219.542 279.591C222.059 278.097 225.017 277.35 228.417 277.35C233.495 277.35 237.425 278.888 240.207 281.963C243.033 285.038 244.446 289.212 244.446 294.483C244.446 295.757 244.424 296.57 244.38 296.921H218.416C218.504 299.953 219.41 302.523 221.132 304.631C222.898 306.696 225.371 307.728 228.55 307.728C231.199 307.728 233.23 307.091 234.643 305.817C236.101 304.543 237.028 303.16 237.425 301.666H244.049C243.077 305.092 241.289 307.838 238.684 309.903C236.079 311.968 232.656 313 228.417 313ZM237.69 291.847C237.69 289.168 236.807 286.971 235.041 285.258C233.319 283.501 231.045 282.622 228.219 282.622C225.481 282.622 223.207 283.479 221.397 285.192C219.586 286.861 218.593 289.08 218.416 291.847H237.69Z" fill="#C6C6C8"/>
<path d="M274.634 313C271.322 313 268.408 312.253 265.891 310.76C263.374 309.266 261.431 307.179 260.062 304.499C258.693 301.776 258.009 298.679 258.009 295.208C258.009 291.738 258.693 288.662 260.062 285.983C261.431 283.259 263.352 281.15 265.824 279.657C268.341 278.163 271.256 277.416 274.567 277.416C277.393 277.416 279.91 277.987 282.118 279.129C284.326 280.228 286.092 281.787 287.417 283.808C288.742 285.785 289.536 288.047 289.801 290.595H283.112C282.891 288.487 282.118 286.664 280.793 285.126C279.469 283.545 277.415 282.754 274.634 282.754C271.278 282.754 268.783 283.962 267.149 286.378C265.559 288.75 264.765 291.694 264.765 295.208C264.765 298.723 265.559 301.666 267.149 304.038C268.783 306.41 271.278 307.597 274.634 307.597C277.46 307.597 279.535 306.828 280.86 305.29C282.184 303.753 282.935 301.842 283.112 299.557H289.801C289.669 302.105 288.94 304.412 287.616 306.476C286.291 308.497 284.503 310.101 282.251 311.287C279.999 312.429 277.46 313 274.634 313Z" fill="#C6C6C8"/>
<path d="M302.336 312.934C298.98 312.934 296.287 312.055 294.256 310.298C292.269 308.541 291.275 306.213 291.275 303.313C291.275 300.897 291.827 298.964 292.931 297.514C294.079 296.021 295.646 294.879 297.634 294.088C299.665 293.253 302.248 292.55 305.383 291.979C307.547 291.584 309.18 291.232 310.284 290.925C311.388 290.573 312.271 290.112 312.934 289.541C313.596 288.926 313.927 288.091 313.927 287.037C313.927 284.05 311.786 282.556 307.502 282.556C304.632 282.556 302.623 283.039 301.475 284.006C300.327 284.972 299.665 286.598 299.488 288.882H292.865C293.041 285.412 294.344 282.622 296.772 280.513C299.201 278.405 302.866 277.35 307.767 277.35C311.565 277.35 314.59 278.273 316.842 280.118C319.138 281.919 320.286 284.862 320.286 288.948V304.368C320.286 305.642 320.396 306.586 320.617 307.201C320.838 307.772 321.257 308.058 321.875 308.058L322.67 307.992V311.946C321.566 312.209 320.462 312.341 319.358 312.341C317.68 312.341 316.4 311.968 315.517 311.221C314.678 310.43 314.17 309.112 313.993 307.267H313.861C312.757 309.068 311.234 310.474 309.291 311.484C307.348 312.451 305.03 312.934 302.336 312.934ZM298.031 302.852C298.031 306.103 299.952 307.728 303.793 307.728C306.84 307.728 309.291 306.981 311.145 305.488C313 303.95 313.927 301.754 313.927 298.898V294.088C313.441 294.527 312.58 294.944 311.344 295.34C310.152 295.691 308.54 296.087 306.509 296.526C303.462 297.141 301.276 297.932 299.952 298.898C298.671 299.821 298.031 301.139 298.031 302.852Z" fill="#C6C6C8"/>
<path d="M326.197 264.896H332.688V312.012H326.197V264.896Z" fill="#C6C6C8"/>
<path d="M337.987 264.896H344.478V312.012H337.987V264.896Z" fill="#C6C6C8"/>
<path d="M363.091 312.934C358.145 312.934 354.326 311.814 351.632 309.573C348.983 307.333 347.614 304.412 347.526 300.809H354.083C354.215 302.918 354.988 304.609 356.401 305.883C357.858 307.113 360.066 307.728 363.025 307.728C365.63 307.728 367.484 307.267 368.588 306.345C369.692 305.378 370.244 304.192 370.244 302.786C370.244 301.468 369.847 300.458 369.052 299.755C368.257 299.052 367.396 298.591 366.469 298.371C365.586 298.108 363.886 297.712 361.369 297.185C358.763 296.57 356.6 295.933 354.878 295.274C353.156 294.615 351.698 293.627 350.506 292.309C349.314 290.991 348.718 289.255 348.718 287.103C348.718 284.16 349.844 281.809 352.096 280.052C354.392 278.295 357.549 277.416 361.567 277.416C365.983 277.416 369.383 278.427 371.767 280.447C374.152 282.468 375.477 285.038 375.742 288.157H369.184C368.875 286.532 368.169 285.214 367.065 284.203C366.005 283.149 364.217 282.622 361.7 282.622C359.58 282.622 358.013 282.995 356.997 283.742C355.982 284.489 355.474 285.521 355.474 286.839C355.474 287.806 355.761 288.575 356.335 289.146C356.909 289.717 357.637 290.156 358.521 290.464C359.404 290.727 360.706 291.035 362.428 291.386C362.782 291.43 363.312 291.54 364.018 291.716C366.712 292.331 368.941 292.99 370.708 293.692C372.474 294.395 373.953 295.45 375.145 296.855C376.382 298.261 377 300.128 377 302.457C377 305.751 375.786 308.321 373.357 310.166C370.929 312.012 367.506 312.934 363.091 312.934Z" fill="#C6C6C8"/>
<path d="M192.233 88.0839H188V85H200.108V88.0839H195.895V100H192.233V88.0839Z" fill="#C6C6C8"/>
<path d="M201.023 85H205.5L208.491 94.5664H208.532L211.523 85H216V100H212.541V90.6643H212.5L209.794 100H207.23L204.523 90.6643H204.483V100H201.023V85Z" fill="#C6C6C8"/>
<path d="M187.432 138.272H197.16V148H187.432V138.272Z" fill="#C6C6C8"/>
</svg>
