<svg width="776" height="236" viewBox="0 0 776 236" fill="none" xmlns="http://www.w3.org/2000/svg">
<path d="M44.24 104.02C35.7467 104.02 28.2333 102.62 21.7 99.82C15.1667 96.9267 9.98667 92.82 6.16 87.5C2.42667 82.0867 0.373333 75.6933 0 68.32H15.96C16.52 75.4133 19.04 80.9667 23.52 84.98C28.0933 88.9 34.86 90.86 43.82 90.86C57.82 90.86 64.82 85.4933 64.82 74.76C64.82 70.7467 63.7933 67.62 61.74 65.38C59.78 63.14 57.12 61.46 53.76 60.34C50.4933 59.22 44.8467 57.6333 36.82 55.58C29.9133 53.7133 24.22 51.8467 19.74 49.98C15.3533 48.1133 11.62 45.36 8.54 41.72C5.46 37.9867 3.92 33.18 3.92 27.3C3.92 18.7133 7.04667 12.04 13.3 7.28C19.5533 2.42667 28.0933 0 38.92 0C50.4 0 59.5933 2.8 66.5 8.4C73.5 14 77.3733 21.7933 78.12 31.78H62.16C61.32 25.62 59.0333 21 55.3 17.92C51.5667 14.7467 46.1533 13.16 39.06 13.16C32.8067 13.16 28.0467 14.28 24.78 16.52C21.6067 18.76 20.02 22.0733 20.02 26.46C20.02 30.0067 21 32.8067 22.96 34.86C24.92 36.9133 27.3933 38.5 30.38 39.62C33.3667 40.6467 37.7067 41.86 43.4 43.26C51.8933 45.4067 58.6133 47.46 63.56 49.42C68.5067 51.38 72.6133 54.32 75.88 58.24C79.24 62.0667 80.92 67.2933 80.92 73.92C80.92 82.9733 77.7933 90.2533 71.54 95.76C65.38 101.267 56.28 104.02 44.24 104.02Z" fill="#C6C6C8"/>
<path d="M121.504 104.02C116.277 104.02 111.844 103.04 108.204 101.08C104.564 99.0267 101.67 96.4133 99.5236 93.24H99.2436L99.2247 132.062H85.5047L85.5236 30.66H99.2436V39.06H99.5236C104.937 32.06 112.264 28.56 121.504 28.56C127.57 28.56 133.03 30.1 137.884 33.18C142.737 36.26 146.564 40.6467 149.364 46.34C152.164 52.0333 153.564 58.7067 153.564 66.36C153.564 74.0133 152.164 80.6867 149.364 86.38C146.564 92.0733 142.737 96.46 137.884 99.54C133.03 102.527 127.57 104.02 121.504 104.02ZM99.3836 66.36C99.3836 74.48 101.157 80.92 104.704 85.68C108.25 90.3467 113.104 92.68 119.264 92.68C125.704 92.68 130.604 90.16 133.964 85.12C137.417 80.08 139.144 73.8267 139.144 66.36C139.144 58.8933 137.417 52.64 133.964 47.6C130.604 42.56 125.704 40.04 119.264 40.04C113.104 40.04 108.25 42.42 104.704 47.18C101.157 51.8467 99.3836 58.24 99.3836 66.36Z" fill="#C6C6C8"/>
<path d="M190.007 104.16C182.634 104.16 176.287 102.527 170.967 99.26C165.647 95.9933 161.587 91.5133 158.787 85.82C156.081 80.1267 154.727 73.5933 154.727 66.22C154.727 58.7533 156.127 52.1733 158.927 46.48C161.821 40.7867 165.927 36.3533 171.247 33.18C176.567 30.0067 182.821 28.42 190.007 28.42C200.741 28.42 209.047 31.6867 214.927 38.22C220.901 44.7533 223.887 53.62 223.887 64.82C223.887 67.5267 223.841 69.2533 223.747 70H168.867C169.054 76.44 170.967 81.9 174.607 86.38C178.341 90.7667 183.567 92.96 190.287 92.96C195.887 92.96 200.181 91.6067 203.167 88.9C206.247 86.1933 208.207 83.2533 209.047 80.08H223.047C220.994 87.36 217.214 93.1933 211.707 97.58C206.201 101.967 198.967 104.16 190.007 104.16ZM209.607 59.22C209.607 53.5267 207.741 48.86 204.007 45.22C200.367 41.4867 195.561 39.62 189.587 39.62C183.801 39.62 178.994 41.44 175.167 45.08C171.341 48.6267 169.241 53.34 168.867 59.22H209.607Z" fill="#C6C6C8"/>
<path d="M260.117 104.16C252.743 104.16 246.397 102.527 241.077 99.26C235.757 95.9933 231.697 91.5133 228.897 85.82C226.19 80.1267 224.837 73.5933 224.837 66.22C224.837 58.7533 226.237 52.1733 229.037 46.48C231.93 40.7867 236.037 36.3533 241.357 33.18C246.677 30.0067 252.93 28.42 260.117 28.42C270.85 28.42 279.157 31.6867 285.037 38.22C291.01 44.7533 293.997 53.62 293.997 64.82C293.997 67.5267 293.95 69.2533 293.857 70H238.977C239.163 76.44 241.077 81.9 244.717 86.38C248.45 90.7667 253.677 92.96 260.397 92.96C265.997 92.96 270.29 91.6067 273.277 88.9C276.357 86.1933 278.317 83.2533 279.157 80.08H293.157C291.103 87.36 287.323 93.1933 281.817 97.58C276.31 101.967 269.077 104.16 260.117 104.16ZM279.717 59.22C279.717 53.5267 277.85 48.86 274.117 45.22C270.477 41.4867 265.67 39.62 259.697 39.62C253.91 39.62 249.103 41.44 245.277 45.08C241.45 48.6267 239.35 53.34 238.977 59.22H279.717Z" fill="#C6C6C8"/>
<path d="M327.006 104.02C320.939 104.02 315.479 102.527 310.626 99.54C305.773 96.46 301.946 92.0733 299.146 86.38C296.346 80.6867 294.946 74.0133 294.946 66.36C294.946 58.7067 296.346 52.0333 299.146 46.34C301.946 40.6467 305.773 36.26 310.626 33.18C315.479 30.1 320.939 28.56 327.006 28.56C332.233 28.56 336.619 29.5867 340.166 31.64C343.806 33.6 346.746 36.1667 348.986 39.34H349.266V1.96H362.986V102.06H349.266V93.66H348.986C346.653 96.6467 343.666 99.12 340.026 101.08C336.479 103.04 332.139 104.02 327.006 104.02ZM309.226 66.36C309.226 73.8267 310.953 80.08 314.406 85.12C317.859 90.16 322.806 92.68 329.246 92.68C335.406 92.68 340.259 90.3467 343.806 85.68C347.353 80.92 349.126 74.48 349.126 66.36C349.126 58.24 347.353 51.8467 343.806 47.18C340.259 42.42 335.406 40.04 329.246 40.04C322.806 40.04 317.859 42.56 314.406 47.6C310.953 52.64 309.226 58.8933 309.226 66.36Z" fill="#C6C6C8"/>
<path d="M385.15 102.06H371.43V30.66H385.15V44.24H385.43C389.723 34.0667 396.116 28.98 404.61 28.98C406.943 28.98 409.137 29.12 411.19 29.4V42.56C409.51 42.28 407.97 42.14 406.57 42.14C400.317 42.14 395.183 44.2867 391.17 48.58C387.156 52.8733 385.15 58.38 385.15 65.1V102.06Z" fill="#C6C6C8"/>
<path d="M436.342 104.02C429.342 104.02 423.602 102.013 419.122 98C414.735 93.8933 412.542 87.92 412.542 80.08V30.66H426.262V76.3C426.262 81.34 427.428 85.3067 429.762 88.2C432.188 91 435.875 92.4 440.822 92.4C446.702 92.4 451.368 90.7667 454.822 87.5C458.368 84.2333 460.142 79.8933 460.142 74.48V30.66H473.862V102.06H460.142V93.1H459.862C457.715 96.2733 454.682 98.8867 450.762 100.94C446.842 102.993 442.035 104.02 436.342 104.02Z" fill="#C6C6C8"/>
<path d="M529.854 56.28C529.854 51.24 528.641 47.32 526.214 44.52C523.881 41.72 520.241 40.32 515.294 40.32C509.414 40.32 504.701 41.9533 501.154 45.22C497.701 48.4867 495.974 52.8267 495.974 58.24V102.06H482.254V30.66H495.974V39.62H496.254C498.401 36.4467 501.434 33.8333 505.354 31.78C509.274 29.6333 514.081 28.56 519.774 28.56C526.774 28.56 532.467 30.6133 536.854 34.72C541.334 38.7333 543.574 44.66 543.574 52.5V102.06H529.854V56.28Z" fill="#C6C6C8"/>
<path d="M599.006 56.28C599.006 51.24 597.793 47.32 595.366 44.52C593.033 41.72 589.393 40.32 584.446 40.32C578.566 40.32 573.853 41.9533 570.306 45.22C566.853 48.4867 565.126 52.8267 565.126 58.24V102.06H551.406V30.66H565.126V39.62H565.406C567.553 36.4467 570.586 33.8333 574.506 31.78C578.426 29.6333 583.233 28.56 588.926 28.56C595.926 28.56 601.62 30.6133 606.006 34.72C610.486 38.7333 612.726 44.66 612.726 52.5V102.06H599.006V56.28Z" fill="#C6C6C8"/>
<path d="M620.559 30.66H634.279V102.06H620.559V30.66ZM619.719 3.08H635.259V17.92H619.719V3.08Z" fill="#C6C6C8"/>
<path d="M690.28 56.28C690.28 51.24 689.066 47.32 686.64 44.52C684.306 41.72 680.667 40.32 675.72 40.32C669.84 40.32 665.127 41.9533 661.58 45.22C658.127 48.4867 656.4 52.8267 656.4 58.24V102.06H642.68V30.66H656.4V39.62H656.68C658.827 36.4467 661.86 33.8333 665.78 31.78C669.7 29.6333 674.506 28.56 680.2 28.56C687.2 28.56 692.893 30.6133 697.28 34.72C701.76 38.7333 704 44.66 704 52.5V102.06H690.28V56.28Z" fill="#C6C6C8"/>
<path d="M742.492 127.68C732.692 127.68 725.086 125.58 719.672 121.38C714.259 117.273 711.179 111.813 710.432 105H724.712C726.392 112.653 732.319 116.48 742.492 116.48C749.119 116.48 754.066 114.94 757.332 111.86C760.599 108.78 762.232 103.927 762.232 97.3V87.64H761.952C757.006 94.8267 749.679 98.42 739.972 98.42C733.999 98.42 728.632 97.1133 723.872 94.5C719.112 91.7933 715.332 87.8267 712.532 82.6C709.825 77.28 708.472 70.9333 708.472 63.56C708.472 56.0933 709.825 49.7467 712.532 44.52C715.332 39.2933 719.066 35.3267 723.732 32.62C728.492 29.9133 733.906 28.56 739.972 28.56C749.212 28.56 756.539 32.06 761.952 39.06H762.232V30.66H775.952V96.46C775.952 106.913 773.012 114.707 767.132 119.84C761.252 125.067 753.039 127.68 742.492 127.68ZM722.752 63.56C722.752 70.56 724.432 76.2533 727.792 80.64C731.152 84.9333 736.052 87.08 742.492 87.08C748.746 87.08 753.552 85.0733 756.912 81.06C760.366 77.0467 762.092 71.2133 762.092 63.56C762.092 55.8133 760.366 49.98 756.912 46.06C753.552 42.0467 748.746 40.04 742.492 40.04C736.052 40.04 731.152 42.2333 727.792 46.62C724.432 50.9133 722.752 56.56 722.752 63.56Z" fill="#C6C6C8"/>
<path d="M6.58 109.96H77.42V123.26H21.98V151.68H70.56V164.98H21.98V196.76H82.1406V210.06H6.58V109.96Z" fill="#C6C6C8"/>
<path d="M133.105 164.423C133.105 159.383 131.891 155.463 129.465 152.663C127.131 149.863 123.491 148.463 118.545 148.463C112.665 148.463 107.951 150.096 104.405 153.363C100.951 156.629 99.2247 160.969 99.2247 166.383V210.202H85.5047V136.702H99.2247V147.763H99.5047C101.651 144.589 104.685 141.976 108.605 139.923C112.525 137.776 117.331 136.702 123.025 136.702C130.025 136.702 135.718 138.756 140.105 142.863C144.585 146.876 146.825 152.802 146.825 160.643V210.202H133.105V164.423Z" fill="#C6C6C8"/>
<path d="M177.493 211.043C171.147 211.043 166.387 209.503 163.213 206.423C160.133 203.343 158.593 197.883 158.593 190.043V150.143H148.233V138.803H158.593V115.7H172.313V138.803H186.033V150.143H172.313V190.463C172.313 194.103 172.873 196.576 173.993 197.883C175.207 199.096 177.307 199.702 180.293 199.702C182.067 199.702 184.027 199.516 186.173 199.143V210.202C183.373 210.762 180.48 211.043 177.493 211.043Z" fill="#C6C6C8"/>
<path d="M204.17 210.202H190.45V138.803H204.17V152.383H204.45C208.743 142.209 215.137 137.122 223.63 137.122C225.963 137.122 228.157 137.262 230.21 137.542V150.702C228.53 150.422 226.99 150.283 225.59 150.283C219.337 150.283 214.203 152.429 210.19 156.723C206.177 161.016 204.17 166.523 204.17 173.243V210.202Z" fill="#C6C6C8"/>
<path d="M261.034 212.303C253.754 212.303 247.407 210.716 241.994 207.543C236.581 204.369 232.427 199.936 229.534 194.243C226.734 188.549 225.334 181.969 225.334 174.503C225.334 167.036 226.781 160.456 229.674 154.762C232.567 149.069 236.674 144.636 241.994 141.463C247.407 138.196 253.801 136.562 261.174 136.562C268.454 136.562 274.754 138.149 280.074 141.323C285.487 144.496 289.594 148.976 292.394 154.762C295.287 160.456 296.734 166.989 296.734 174.363C296.734 181.829 295.287 188.456 292.394 194.243C289.501 199.936 285.347 204.369 279.934 207.543C274.614 210.716 268.314 212.303 261.034 212.303ZM239.614 174.503C239.614 182.343 241.434 188.736 245.074 193.683C248.714 198.536 254.081 200.963 261.174 200.963C268.174 200.963 273.447 198.536 276.994 193.683C280.634 188.736 282.454 182.343 282.454 174.503C282.454 166.663 280.634 160.316 276.994 155.463C273.447 150.516 268.174 148.042 261.174 148.042C254.081 148.042 248.714 150.469 245.074 155.323C241.434 160.176 239.614 166.569 239.614 174.503Z" fill="#C6C6C8"/>
<path d="M337.391 212.163C332.164 212.163 327.731 211.183 324.091 209.223C320.451 207.169 317.558 204.556 315.411 201.383H315.131V234.983H301.411V138.803H315.131V147.202H315.411C320.824 140.202 328.151 136.702 337.391 136.702C343.458 136.702 348.918 138.243 353.771 141.323C358.624 144.403 362.451 148.789 365.251 154.482C368.051 160.176 369.451 166.849 369.451 174.503C369.451 182.156 368.051 188.829 365.251 194.523C362.451 200.216 358.624 204.603 353.771 207.683C348.918 210.669 343.458 212.163 337.391 212.163ZM315.271 174.503C315.271 182.623 317.044 189.063 320.591 193.823C324.138 198.489 328.991 200.823 335.151 200.823C341.591 200.823 346.491 198.303 349.851 193.263C353.304 188.223 355.031 181.969 355.031 174.503C355.031 167.036 353.304 160.783 349.851 155.743C346.491 150.703 341.591 148.183 335.151 148.183C328.991 148.183 324.138 150.563 320.591 155.323C317.044 159.989 315.271 166.383 315.271 174.503Z" fill="#C6C6C8"/>
<path d="M381.581 235.263C379.061 235.263 376.121 234.936 372.761 234.283V223.083C375.187 223.363 377.147 223.503 378.641 223.503C381.814 223.503 384.707 222.429 387.321 220.283C390.027 218.229 392.034 214.636 393.341 209.503L364.501 138.803H379.481L400.341 193.403H400.621L420.221 138.803H434.641L406.361 211.883C403.001 220.563 399.407 226.629 395.581 230.083C391.847 233.536 387.181 235.263 381.581 235.263Z" fill="#C6C6C8"/>
</svg>
