<svg width="92" height="52" viewBox="0 0 92 52" fill="none" xmlns="http://www.w3.org/2000/svg">
<path d="M0 36.1319H2.9205C3.63203 36.1319 4.18508 36.2826 4.57966 36.5841C4.9807 36.8793 5.18122 37.2938 5.18122 37.8277C5.18122 38.5248 4.82222 38.9927 4.10422 39.2314V39.2502C4.4988 39.3193 4.82222 39.4921 5.07449 39.7684C5.32676 40.0448 5.45289 40.4216 5.45289 40.8989C5.45289 41.5333 5.24267 42.02 4.82222 42.3592C4.40177 42.6983 3.82608 42.8679 3.09515 42.8679H0V36.1319ZM3.01753 41.9729C3.49619 41.9729 3.83578 41.8756 4.03631 41.6809C4.23683 41.4799 4.33709 41.2067 4.33709 40.8612C4.33709 40.5095 4.23359 40.2363 4.0266 40.0416C3.81961 39.8469 3.53177 39.7496 3.16307 39.7496H1.06729V41.9729H3.01753ZM2.89139 38.9299C3.31184 38.9299 3.61262 38.8514 3.79374 38.6944C3.97486 38.5311 4.06541 38.2924 4.06541 37.9784C4.06541 37.6769 3.97162 37.4446 3.78404 37.2813C3.59645 37.1117 3.32478 37.0269 2.96901 37.0269H1.06729V38.9299H2.89139Z" fill="#C6C6C8"/>
<path d="M8.83905 42.9998C7.92053 42.9998 7.23811 42.7863 6.79179 42.3592C6.35193 41.9321 6.132 41.3386 6.132 40.5786V36.1319H7.1993V40.5786C7.1993 41.0999 7.33513 41.4862 7.60681 41.7374C7.87848 41.9823 8.28923 42.1048 8.83905 42.1048C9.39533 42.1048 9.80608 41.9823 10.0713 41.7374C10.343 41.4862 10.4788 41.0999 10.4788 40.5786V36.1319H11.5558V40.5786C11.5558 41.3386 11.3326 41.9321 10.8863 42.3592C10.4465 42.7863 9.76403 42.9998 8.83905 42.9998Z" fill="#C6C6C8"/>
<path d="M12.5979 36.1319H13.6652V42.8679H12.5979V36.1319Z" fill="#C6C6C8"/>
<path d="M14.7515 36.1319H15.8187V41.9729H19.3311V42.8679H14.7515V36.1319Z" fill="#C6C6C8"/>
<path d="M20.3748 37.0269H18.1335V36.1319H23.6931V37.0269H21.4518V42.8679H20.3748V37.0269Z" fill="#C6C6C8"/>
<path d="M25.6939 36.1319H28.6144C29.3259 36.1319 29.8789 36.2826 30.2735 36.5841C30.6746 36.8793 30.8751 37.2938 30.8751 37.8277C30.8751 38.5248 30.5161 38.9927 29.7981 39.2314V39.2502C30.1927 39.3193 30.5161 39.4921 30.7683 39.7684C31.0206 40.0448 31.1467 40.4216 31.1467 40.8989C31.1467 41.5333 30.9365 42.02 30.5161 42.3592C30.0956 42.6983 29.5199 42.8679 28.789 42.8679H25.6939V36.1319ZM28.7114 41.9729C29.19 41.9729 29.5296 41.8756 29.7302 41.6809C29.9307 41.4799 30.0309 41.2067 30.0309 40.8612C30.0309 40.5095 29.9274 40.2363 29.7205 40.0416C29.5135 39.8469 29.2256 39.7496 28.8569 39.7496H26.7611V41.9729H28.7114ZM28.5852 38.9299C29.0057 38.9299 29.3065 38.8514 29.4876 38.6944C29.6687 38.5311 29.7593 38.2924 29.7593 37.9784C29.7593 37.6769 29.6655 37.4446 29.4779 37.2813C29.2903 37.1117 29.0186 37.0269 28.6629 37.0269H26.7611V38.9299H28.5852Z" fill="#C6C6C8"/>
<path d="M33.3772 40.1735L30.8933 36.1319H32.048L33.9109 39.3539H33.9303L35.7932 36.1319H36.9381L34.4542 40.1735V42.8679H33.3772V40.1735Z" fill="#C6C6C8"/>
<path d="M38.825 36.1319H41.7164C42.4797 36.1319 43.0619 36.3015 43.4629 36.6406C43.8704 36.9735 44.0742 37.4508 44.0742 38.0726C44.0742 38.4934 43.9545 38.8514 43.7152 39.1466C43.4758 39.4418 43.1621 39.6334 42.774 39.7213V39.7401C43.1104 39.8029 43.3626 39.9568 43.5308 40.2018C43.7055 40.4467 43.8187 40.7168 43.8704 41.012C43.9286 41.3072 43.9707 41.6526 43.9966 42.0483C44.016 42.3058 44.0354 42.4911 44.0548 42.6041C44.0742 42.7172 44.113 42.7831 44.1712 42.802V42.8679H43.0263C42.981 42.8302 42.9519 42.7643 42.939 42.6701C42.9325 42.5696 42.926 42.4063 42.9196 42.1802C42.9131 41.8033 42.884 41.483 42.8322 41.2192C42.787 40.9554 42.6738 40.7262 42.4926 40.5315C42.318 40.3305 42.0463 40.23 41.6776 40.23H39.8923V42.8679H38.825V36.1319ZM41.4836 39.335C41.9752 39.335 42.3503 39.2345 42.6091 39.0336C42.8678 38.8263 42.9972 38.5311 42.9972 38.148C42.9972 37.7774 42.8775 37.4979 42.6382 37.3095C42.4053 37.1211 42.0269 37.0269 41.503 37.0269H39.8923V39.335H41.4836Z" fill="#C6C6C8"/>
<path d="M47.9579 42.9998C47.2787 42.9998 46.6804 42.8491 46.1629 42.5476C45.6519 42.2461 45.2541 41.8316 44.9695 41.304C44.6913 40.7702 44.5523 40.1672 44.5523 39.4952C44.5523 38.8232 44.6913 38.2234 44.9695 37.6958C45.2541 37.1619 45.6519 36.7474 46.1629 36.4522C46.6804 36.1507 47.2787 36 47.9579 36C48.6371 36 49.2322 36.1507 49.7432 36.4522C50.2607 36.7474 50.6585 37.1619 50.9366 37.6958C51.2212 38.2234 51.3635 38.8232 51.3635 39.4952C51.3635 40.1672 51.2212 40.7702 50.9366 41.304C50.6585 41.8316 50.2607 42.2461 49.7432 42.5476C49.2322 42.8491 48.6371 42.9998 47.9579 42.9998ZM45.6681 39.4952C45.6681 40.2489 45.8556 40.8738 46.2308 41.37C46.6125 41.8599 47.1881 42.1048 47.9579 42.1048C48.7276 42.1048 49.3001 41.8599 49.6753 41.37C50.0569 40.8738 50.2477 40.2489 50.2477 39.4952C50.2477 38.7415 50.0569 38.1197 49.6753 37.6298C49.3001 37.1399 48.7276 36.895 47.9579 36.895C47.1881 36.895 46.6125 37.1399 46.2308 37.6298C45.8556 38.1197 45.6681 38.7415 45.6681 39.4952Z" fill="#C6C6C8"/>
<path d="M55.0157 42.9998C54.3689 42.9998 53.7997 42.8522 53.3081 42.557C52.8229 42.2555 52.4445 41.841 52.1729 41.3134C51.9077 40.7796 51.7751 40.1766 51.7751 39.5046C51.7751 38.8326 51.9077 38.2296 52.1729 37.6958C52.4445 37.1619 52.8262 36.7474 53.3178 36.4522C53.8094 36.1507 54.3786 36 55.0255 36C55.5882 36 56.083 36.1068 56.51 36.3203C56.9433 36.5339 57.2862 36.8228 57.5384 37.187C57.7907 37.5513 57.9459 37.9627 58.0042 38.4212H56.8884C56.8107 38.0004 56.6264 37.6424 56.3353 37.3472C56.0442 37.0457 55.6011 36.895 55.006 36.895C54.288 36.895 53.7544 37.1431 53.4051 37.6393C53.0623 38.1354 52.8909 38.7541 52.8909 39.4952C52.8909 40.2426 53.0623 40.8644 53.4051 41.3605C53.7544 41.8567 54.288 42.1048 55.006 42.1048C55.6205 42.1048 56.0766 41.9447 56.3741 41.6243C56.6781 41.2977 56.8496 40.8958 56.8884 40.4184H58.0042C57.9524 40.9209 57.8004 41.3668 57.5481 41.7562C57.2959 42.1456 56.953 42.4502 56.5197 42.6701C56.0863 42.8899 55.585 42.9998 55.0157 42.9998Z" fill="#C6C6C8"/>
<path d="M58.6742 36.1319H59.7415V39.5423L63.0307 36.1319H64.2241L61.5074 38.9394L64.4473 42.8679H63.1956L60.8476 39.6271L59.7415 40.767V42.8679H58.6742V36.1319Z" fill="#C6C6C8"/>
<path d="M67.0762 42.9998C66.4876 42.9998 65.9669 42.9056 65.5141 42.7172C65.0613 42.5225 64.7023 42.2461 64.4371 41.8881C64.1784 41.5238 64.0361 41.0936 64.0102 40.5975H65.1163C65.1551 41.0748 65.3298 41.4485 65.6402 41.7185C65.9572 41.9823 66.4261 42.1142 67.0471 42.1142C68.0174 42.1142 68.5025 41.7531 68.5025 41.0308C68.5025 40.7607 68.4314 40.5503 68.2891 40.3996C68.1532 40.2489 67.9689 40.1358 67.736 40.0605C67.5096 39.9851 67.1183 39.8783 66.562 39.7401C66.0833 39.6145 65.6887 39.4889 65.3783 39.3633C65.0742 39.2377 64.8155 39.0524 64.6021 38.8075C64.3886 38.5562 64.2819 38.2328 64.2819 37.8371C64.2819 37.2593 64.4986 36.8102 64.9319 36.4899C65.3653 36.1633 65.9572 36 66.7075 36C67.5031 36 68.1403 36.1884 68.6189 36.5653C69.1041 36.9421 69.3725 37.4665 69.4243 38.1386H68.3182C68.26 37.724 68.1015 37.4131 67.8427 37.2059C67.584 36.9923 67.2088 36.8856 66.7172 36.8856C66.2838 36.8856 65.9539 36.9609 65.7276 37.1117C65.5076 37.2624 65.3977 37.4854 65.3977 37.7806C65.3977 38.0192 65.4656 38.2077 65.6014 38.3458C65.7373 38.484 65.9087 38.5908 66.1157 38.6661C66.3226 38.7352 66.6234 38.8169 67.018 38.9111C67.6066 39.0555 68.0724 39.1937 68.4152 39.3256C68.758 39.4575 69.0426 39.6553 69.269 39.9191C69.5019 40.1766 69.6183 40.5284 69.6183 40.9743C69.6183 41.5835 69.4016 42.0734 68.9682 42.444C68.5413 42.8145 67.9107 42.9998 67.0762 42.9998Z" fill="#C6C6C8"/>
<path d="M71.7004 37.0269H69.4591V36.1319H75.0187V37.0269H72.7774V42.8679H71.7004V37.0269Z" fill="#C6C6C8"/>
<path d="M76.5882 36.1319H77.7429L80.3432 42.8679H79.1788L78.6064 41.2475H75.7053L75.1328 42.8679H74.0073L76.5882 36.1319ZM78.3056 40.3713L77.1704 37.0928H77.151L76.0255 40.3713H78.3056Z" fill="#C6C6C8"/>
<path d="M80.7716 36.1319H83.663C84.4263 36.1319 85.0084 36.3015 85.4095 36.6406C85.817 36.9735 86.0207 37.4508 86.0207 38.0726C86.0207 38.4934 85.9011 38.8514 85.6617 39.1466C85.4224 39.4418 85.1087 39.6334 84.7206 39.7213V39.7401C85.0569 39.8029 85.3092 39.9568 85.4774 40.2018C85.652 40.4467 85.7652 40.7168 85.817 41.012C85.8752 41.3072 85.9172 41.6526 85.9431 42.0483C85.9625 42.3058 85.9819 42.4911 86.0013 42.6041C86.0207 42.7172 86.0596 42.7831 86.1178 42.802V42.8679H84.9729C84.9276 42.8302 84.8985 42.7643 84.8855 42.6701C84.8791 42.5696 84.8726 42.4063 84.8661 42.1802C84.8597 41.8033 84.8305 41.483 84.7788 41.2192C84.7335 40.9554 84.6203 40.7262 84.4392 40.5315C84.2646 40.3305 83.9929 40.23 83.6242 40.23H81.8389V42.8679H80.7716V36.1319ZM83.4301 39.335C83.9217 39.335 84.2969 39.2345 84.5556 39.0336C84.8144 38.8263 84.9437 38.5311 84.9437 38.148C84.9437 37.7774 84.8241 37.4979 84.5847 37.3095C84.3519 37.1211 83.9735 37.0269 83.4495 37.0269H81.8389V39.335H83.4301Z" fill="#C6C6C8"/>
<path d="M89.4579 42.9998C88.8693 42.9998 88.3486 42.9056 87.8958 42.7172C87.443 42.5225 87.084 42.2461 86.8188 41.8881C86.56 41.5238 86.4177 41.0936 86.3919 40.5975H87.498C87.5368 41.0748 87.7114 41.4485 88.0219 41.7185C88.3389 41.9823 88.8078 42.1142 89.4288 42.1142C90.3991 42.1142 90.8842 41.7531 90.8842 41.0308C90.8842 40.7607 90.813 40.5503 90.6707 40.3996C90.5349 40.2489 90.3506 40.1358 90.1177 40.0605C89.8913 39.9851 89.5 39.8783 88.9437 39.7401C88.465 39.6145 88.0704 39.4889 87.7599 39.3633C87.4559 39.2377 87.1972 39.0524 86.9837 38.8075C86.7703 38.5562 86.6635 38.2328 86.6635 37.8371C86.6635 37.2593 86.8802 36.8102 87.3136 36.4899C87.747 36.1633 88.3389 36 89.0892 36C89.8848 36 90.522 36.1884 91.0006 36.5653C91.4858 36.9421 91.7542 37.4665 91.806 38.1386H90.6999C90.6416 37.724 90.4832 37.4131 90.2244 37.2059C89.9657 36.9923 89.5905 36.8856 89.0989 36.8856C88.6655 36.8856 88.3356 36.9609 88.1092 37.1117C87.8893 37.2624 87.7793 37.4854 87.7793 37.7806C87.7793 38.0192 87.8473 38.2077 87.9831 38.3458C88.1189 38.484 88.2904 38.5908 88.4973 38.6661C88.7043 38.7352 89.0051 38.8169 89.3997 38.9111C89.9883 39.0555 90.454 39.1937 90.7969 39.3256C91.1397 39.4575 91.4243 39.6553 91.6507 39.9191C91.8836 40.1766 92 40.5284 92 40.9743C92 41.5835 91.7833 42.0734 91.3499 42.444C90.923 42.8145 90.2923 42.9998 89.4579 42.9998Z" fill="#C6C6C8"/>
<path d="M6.20288 43.9827H7.27017V50.7187H6.20288V43.9827Z" fill="#C6C6C8"/>
<path d="M8.35641 43.9827H9.57895L12.8002 49.1643H12.8196V43.9827H13.8966V50.7187H12.6741L9.44311 45.5372H9.42371V50.7187H8.35641V43.9827Z" fill="#C6C6C8"/>
<path d="M16.7189 43.9827H17.7862V49.8237H21.2985V50.7187H16.7189V43.9827Z" fill="#C6C6C8"/>
<path d="M23.769 43.9827H24.9236L27.5239 50.7187H26.3596L25.7872 49.0983H22.8861L22.3136 50.7187H21.1881L23.769 43.9827ZM25.4864 48.2222L24.3512 44.9437H24.3318L23.2063 48.2222H25.4864Z" fill="#C6C6C8"/>
<path d="M30.4909 50.8506C29.8376 50.8506 29.2748 50.703 28.8026 50.4079C28.3369 50.1064 27.9812 49.6919 27.7354 49.1643C27.4896 48.6367 27.3667 48.0306 27.3667 47.346C27.3667 46.674 27.4993 46.0742 27.7645 45.5466C28.0361 45.0128 28.4178 44.5982 28.9094 44.303C29.401 44.0016 29.9702 43.8508 30.617 43.8508C31.4773 43.8508 32.1565 44.0518 32.6546 44.4538C33.1591 44.8557 33.4696 45.3927 33.5861 46.0648H32.4702C32.3797 45.6377 32.1727 45.3111 31.8493 45.085C31.5323 44.8589 31.1183 44.7458 30.6073 44.7458C30.1222 44.7458 29.7212 44.8714 29.4042 45.1227C29.0873 45.3676 28.8544 45.6879 28.7056 46.0836C28.5568 46.473 28.4825 46.8938 28.4825 47.346C28.4825 48.0871 28.6409 48.7089 28.9579 49.2114C29.2748 49.7076 29.8053 49.9556 30.5491 49.9556C30.9308 49.9556 31.2768 49.8771 31.5873 49.7201C31.9043 49.5568 32.1533 49.3307 32.3344 49.0418C32.522 48.7529 32.6158 48.4263 32.6158 48.062H30.5685V47.1953H33.7025V50.7187H32.9651L32.7031 49.7861H32.6837C32.4314 50.1441 32.1307 50.411 31.7814 50.5868C31.4321 50.7627 31.0019 50.8506 30.4909 50.8506Z" fill="#C6C6C8"/>
<path d="M37.6253 50.8506C36.9461 50.8506 36.3478 50.6999 35.8303 50.3984C35.3193 50.097 34.9215 49.6824 34.6369 49.1549C34.3588 48.621 34.2197 48.0181 34.2197 47.346C34.2197 46.674 34.3588 46.0742 34.6369 45.5466C34.9215 45.0128 35.3193 44.5982 35.8303 44.303C36.3478 44.0016 36.9461 43.8508 37.6253 43.8508C38.3045 43.8508 38.8996 44.0016 39.4106 44.303C39.9281 44.5982 40.3259 45.0128 40.604 45.5466C40.8886 46.0742 41.031 46.674 41.031 47.346C41.031 48.0181 40.8886 48.621 40.604 49.1549C40.3259 49.6824 39.9281 50.097 39.4106 50.3984C38.8996 50.6999 38.3045 50.8506 37.6253 50.8506ZM35.3355 47.346C35.3355 48.0997 35.5231 48.7246 35.8982 49.2208C36.2799 49.7107 36.8556 49.9556 37.6253 49.9556C38.3951 49.9556 38.9675 49.7107 39.3427 49.2208C39.7243 48.7246 39.9151 48.0997 39.9151 47.346C39.9151 46.5923 39.7243 45.9706 39.3427 45.4807C38.9675 44.9908 38.3951 44.7458 37.6253 44.7458C36.8556 44.7458 36.2799 44.9908 35.8982 45.4807C35.5231 45.9706 35.3355 46.5923 35.3355 47.346Z" fill="#C6C6C8"/>
<path d="M44.3921 50.8506C43.8035 50.8506 43.2828 50.7564 42.83 50.568C42.3772 50.3733 42.0182 50.097 41.753 49.739C41.4942 49.3747 41.3519 48.9445 41.326 48.4483H42.4322C42.471 48.9256 42.6456 49.2993 42.9561 49.5694C43.273 49.8332 43.742 49.9651 44.363 49.9651C45.3332 49.9651 45.8184 49.6039 45.8184 48.8816C45.8184 48.6116 45.7472 48.4012 45.6049 48.2504C45.4691 48.0997 45.2847 47.9867 45.0519 47.9113C44.8255 47.8359 44.4341 47.7291 43.8778 47.591C43.3992 47.4654 43.0046 47.3397 42.6941 47.2141C42.3901 47.0885 42.1314 46.9032 41.9179 46.6583C41.7045 46.4071 41.5977 46.0836 41.5977 45.6879C41.5977 45.1101 41.8144 44.661 42.2478 44.3407C42.6812 44.0141 43.273 43.8508 44.0234 43.8508C44.819 43.8508 45.4561 44.0393 45.9348 44.4161C46.4199 44.7929 46.6884 45.3174 46.7401 45.9894H45.634C45.5758 45.5749 45.4173 45.264 45.1586 45.0567C44.8999 44.8432 44.5247 44.7364 44.0331 44.7364C43.5997 44.7364 43.2698 44.8118 43.0434 44.9625C42.8235 45.1132 42.7135 45.3362 42.7135 45.6314C42.7135 45.8701 42.7814 46.0585 42.9173 46.1967C43.0531 46.3348 43.2245 46.4416 43.4315 46.517C43.6385 46.5861 43.9393 46.6677 44.3339 46.7619C44.9225 46.9064 45.3882 47.0446 45.7311 47.1764C46.0739 47.3083 46.3585 47.5062 46.5849 47.77C46.8178 48.0275 46.9342 48.3792 46.9342 48.8251C46.9342 49.4343 46.7175 49.9242 46.2841 50.2948C45.8572 50.6654 45.2265 50.8506 44.3921 50.8506Z" fill="#C6C6C8"/>
<path d="M47.3886 51.4913C47.5762 51.4347 47.7088 51.35 47.7864 51.2369C47.864 51.1301 47.8996 50.9574 47.8932 50.7187H47.3886V49.6919H48.4462V50.7187C48.4462 51.4033 48.0937 51.8304 47.3886 52V51.4913Z" fill="#C6C6C8"/>
<path d="M50.782 43.9827H52.0046L55.2259 49.1643H55.2453V43.9827H56.3223V50.7187H55.0997L51.8687 45.5372H51.8493V50.7187H50.782V43.9827Z" fill="#C6C6C8"/>
<path d="M57.4079 43.9827H58.4752V50.7187H57.4079V43.9827Z" fill="#C6C6C8"/>
<path d="M62.3558 50.8506C61.7025 50.8506 61.1397 50.703 60.6675 50.4079C60.2018 50.1064 59.846 49.6919 59.6002 49.1643C59.3544 48.6367 59.2315 48.0306 59.2315 47.346C59.2315 46.674 59.3642 46.0742 59.6294 45.5466C59.901 45.0128 60.2827 44.5982 60.7743 44.303C61.2659 44.0016 61.8351 43.8508 62.4819 43.8508C63.3422 43.8508 64.0214 44.0518 64.5195 44.4538C65.024 44.8557 65.3345 45.3927 65.451 46.0648H64.3351C64.2446 45.6377 64.0376 45.3111 63.7142 45.085C63.3972 44.8589 62.9832 44.7458 62.4722 44.7458C61.9871 44.7458 61.5861 44.8714 61.2691 45.1227C60.9522 45.3676 60.7193 45.6879 60.5705 46.0836C60.4217 46.473 60.3473 46.8938 60.3473 47.346C60.3473 48.0871 60.5058 48.7089 60.8228 49.2114C61.1397 49.7076 61.6701 49.9556 62.414 49.9556C62.7957 49.9556 63.1417 49.8771 63.4522 49.7201C63.7692 49.5568 64.0182 49.3307 64.1993 49.0418C64.3869 48.7529 64.4807 48.4263 64.4807 48.062H62.4334V47.1953H65.5674V50.7187H64.83L64.568 49.7861H64.5486C64.2963 50.1441 63.9955 50.411 63.6463 50.5868C63.297 50.7627 62.8668 50.8506 62.3558 50.8506Z" fill="#C6C6C8"/>
<path d="M66.4242 43.9827H71.3337V44.8777H67.4915V46.7902H70.8583V47.6852H67.4915V49.8237H71.4307V50.7187H66.4242V43.9827Z" fill="#C6C6C8"/>
<path d="M72.1404 43.9827H75.0318C75.7951 43.9827 76.3772 44.1523 76.7783 44.4915C77.1858 44.8243 77.3895 45.3017 77.3895 45.9235C77.3895 46.3443 77.2699 46.7023 77.0305 46.9974C76.7912 47.2926 76.4775 47.4842 76.0894 47.5721V47.591C76.4257 47.6538 76.678 47.8077 76.8462 48.0526C77.0208 48.2975 77.134 48.5676 77.1858 48.8628C77.244 49.158 77.286 49.5034 77.3119 49.8991C77.3313 50.1566 77.3507 50.3419 77.3701 50.455C77.3895 50.568 77.4284 50.634 77.4866 50.6528V50.7187H76.3417C76.2964 50.6811 76.2673 50.6151 76.2543 50.5209C76.2479 50.4204 76.2414 50.2571 76.2349 50.031C76.2285 49.6542 76.1993 49.3339 76.1476 49.0701C76.1023 48.8063 75.9891 48.577 75.808 48.3823C75.6334 48.1814 75.3617 48.0809 74.993 48.0809H73.2077V50.7187H72.1404V43.9827ZM74.7989 47.1859C75.2905 47.1859 75.6657 47.0854 75.9244 46.8844C76.1832 46.6771 76.3125 46.3819 76.3125 45.9988C76.3125 45.6283 76.1929 45.3488 75.9535 45.1604C75.7207 44.9719 75.3423 44.8777 74.8183 44.8777H73.2077V47.1859H74.7989Z" fill="#C6C6C8"/>
<path d="M78.2167 43.9827H79.284V50.7187H78.2167V43.9827Z" fill="#C6C6C8"/>
<path d="M82.301 43.9827H83.4557L86.056 50.7187H84.8917L84.3192 49.0983H81.4181L80.8457 50.7187H79.7201L82.301 43.9827ZM84.0184 48.2222L82.8832 44.9437H82.8638L81.7383 48.2222H84.0184Z" fill="#C6C6C8"/>
<path d="M17.9535 14.7212C17.9535 15.1728 18.0413 15.5655 18.217 15.8993C18.4123 16.2134 18.6563 16.4785 18.9492 16.6945C19.242 16.8908 19.5739 17.0381 19.9449 17.1363C20.3353 17.2344 20.7356 17.2835 21.1455 17.2835C21.4384 17.2835 21.741 17.2541 22.0534 17.1952C22.3853 17.1166 22.6781 17.0086 22.9319 16.8712C23.2053 16.7141 23.4298 16.5178 23.6055 16.2822C23.7812 16.0269 23.8691 15.7127 23.8691 15.3397C23.8691 14.7114 23.4493 14.2401 22.6098 13.926C21.7898 13.6118 20.6379 13.2977 19.1542 12.9835C18.5489 12.8461 17.9535 12.689 17.3678 12.5123C16.8016 12.3159 16.294 12.0705 15.845 11.776C15.3959 11.4618 15.0347 11.0789 14.7614 10.6273C14.4881 10.1561 14.3514 9.58668 14.3514 8.9191C14.3514 7.93736 14.5369 7.13233 14.9078 6.50402C15.2983 5.87571 15.8059 5.38484 16.4307 5.03141C17.0554 4.65835 17.7582 4.4031 18.5392 4.26566C19.3201 4.10858 20.1206 4.03004 20.9406 4.03004C21.7605 4.03004 22.5512 4.10858 23.3126 4.26566C24.0936 4.42273 24.7867 4.6878 25.3919 5.06086C25.9971 5.43392 26.4949 5.93461 26.8854 6.56293C27.2954 7.1716 27.5394 7.94718 27.6175 8.88965H23.6641C23.6055 8.08462 23.3029 7.54467 22.7562 7.26978C22.2096 6.97526 21.5653 6.828 20.8234 6.828C20.5891 6.828 20.3353 6.84763 20.062 6.8869C19.7887 6.90653 19.5349 6.96544 19.3006 7.06361C19.0858 7.16179 18.9004 7.30905 18.7442 7.5054C18.588 7.68211 18.5099 7.92754 18.5099 8.2417C18.5099 8.61476 18.6466 8.9191 18.9199 9.15472C19.1932 9.39034 19.5446 9.58668 19.9741 9.74376C20.4232 9.88121 20.9308 10.0088 21.497 10.1266C22.0631 10.2444 22.6391 10.3721 23.2248 10.5095C23.83 10.647 24.4157 10.8139 24.9819 11.0102C25.5676 11.2066 26.085 11.4716 26.534 11.8054C26.983 12.1196 27.3442 12.5221 27.6175 13.013C27.8909 13.4842 28.0275 14.0732 28.0275 14.7801C28.0275 15.7815 27.8225 16.6258 27.4125 17.313C27.0221 17.9806 26.5047 18.5205 25.8604 18.9328C25.2162 19.3452 24.4743 19.6299 23.6348 19.787C22.8148 19.9637 21.9753 20.052 21.1163 20.052C20.2377 20.052 19.3787 19.9637 18.5392 19.787C17.6997 19.6102 16.948 19.3157 16.2842 18.9034C15.64 18.4911 15.1031 17.9511 14.6736 17.2835C14.2636 16.5963 14.039 15.7422 14 14.7212H17.9535Z" fill="#C6C6C8"/>
<path d="M36.0548 16.9301C36.7381 16.9301 37.3043 16.7927 37.7534 16.5178C38.2219 16.2429 38.5929 15.8895 38.8662 15.4575C39.159 15.0059 39.364 14.4856 39.4812 13.8965C39.5983 13.3075 39.6569 12.7086 39.6569 12.0999C39.6569 11.4913 39.5886 10.8924 39.4519 10.3034C39.3348 9.71431 39.1298 9.19399 38.8369 8.74239C38.5441 8.27115 38.1634 7.89809 37.6948 7.6232C37.2458 7.32868 36.6893 7.18142 36.0256 7.18142C35.3422 7.18142 34.7663 7.32868 34.2977 7.6232C33.8487 7.89809 33.4777 8.26134 33.1849 8.71294C32.9116 9.16454 32.7163 9.68486 32.5992 10.2739C32.4821 10.8629 32.4235 11.4716 32.4235 12.0999C32.4235 12.7086 32.4821 13.3075 32.5992 13.8965C32.7359 14.4856 32.9409 15.0059 33.2142 15.4575C33.507 15.8895 33.8877 16.2429 34.3563 16.5178C34.8249 16.7927 35.391 16.9301 36.0548 16.9301ZM28.4114 4.03004H32.3649V6.38621H32.4235C32.9311 5.56155 33.5754 4.96269 34.3563 4.58963C35.1372 4.21657 35.9963 4.03004 36.9334 4.03004C38.1243 4.03004 39.1493 4.25584 40.0083 4.70744C40.8673 5.15904 41.5799 5.7579 42.1461 6.50402C42.7123 7.25014 43.132 8.12389 43.4054 9.12527C43.6787 10.107 43.8154 11.1378 43.8154 12.2177C43.8154 13.2388 43.6787 14.2205 43.4054 15.163C43.132 16.1054 42.7123 16.9399 42.1461 17.6664C41.5995 18.3929 40.9064 18.9721 40.0669 19.4041C39.2469 19.836 38.2805 20.052 37.1677 20.052C36.2305 20.052 35.3618 19.8655 34.5613 19.4924C33.7804 19.0997 33.1361 18.5303 32.6285 17.7842H32.5699V25H28.4114V4.03004Z" fill="#C6C6C8"/>
<path d="M44.2643 4.03004H48.2177V7.26978H48.2763C48.4715 6.79854 48.7351 6.36658 49.067 5.97388C49.3989 5.56155 49.7796 5.21794 50.2091 4.94306C50.6386 4.64853 51.0974 4.42273 51.5855 4.26566C52.0736 4.10858 52.5812 4.03004 53.1083 4.03004C53.3817 4.03004 53.6843 4.07912 54.0162 4.1773V8.06499C53.8209 8.02572 53.5867 7.99627 53.3133 7.97663C53.04 7.93736 52.7764 7.91773 52.5226 7.91773C51.7612 7.91773 51.117 8.04535 50.5898 8.3006C50.0627 8.55586 49.6332 8.90928 49.3013 9.36088C48.9889 9.79285 48.7644 10.3034 48.6277 10.8924C48.4911 11.4814 48.4227 12.1196 48.4227 12.8068V19.6692H44.2643V4.03004Z" fill="#C6C6C8"/>
<path d="M54.4042 4.03004H58.3577V6.56293H58.4455C58.9727 5.67936 59.656 5.04123 60.4955 4.64853C61.335 4.2362 62.194 4.03004 63.0726 4.03004C64.1854 4.03004 65.0932 4.18712 65.7961 4.50127C66.5184 4.79579 67.0846 5.21794 67.4946 5.76772C67.9046 6.29786 68.1877 6.95562 68.3439 7.74101C68.5196 8.50677 68.6074 9.36088 68.6074 10.3034V19.6692H64.449V11.0691C64.449 9.81248 64.2537 8.87983 63.8633 8.27115C63.4728 7.64284 62.7797 7.32868 61.784 7.32868C60.6517 7.32868 59.8317 7.67229 59.3241 8.35951C58.8165 9.02709 58.5627 10.1365 58.5627 11.6876V19.6692H54.4042V4.03004Z" fill="#C6C6C8"/>
<path d="M73.124 4.56509H78L77.3289 7.36305H73.124V14.9028C73.124 15.6097 73.2412 16.0809 73.4754 16.3165C73.7097 16.5521 74.1783 16.6699 74.8811 16.6699C75.1154 16.6699 75.3399 16.6601 75.5547 16.6405C75.7695 16.6209 75.9745 16.5914 76.1697 16.5521V19.7919C75.8183 19.8508 75.4278 19.89 74.9983 19.9097C74.5688 19.9293 74.149 19.9391 73.739 19.9391C73.0948 19.9391 72.4798 19.89 71.8941 19.7919C71.3279 19.7133 70.8203 19.5464 70.3712 19.2912C69.9417 19.0359 69.6001 18.6727 69.3463 18.2015C69.0925 17.7302 68.9656 17.1117 68.9656 16.346V0H73.124V4.56509Z" fill="#C6C6C8"/>
</svg>
