<svg width="115" height="52" viewBox="0 0 115 52" fill="none" xmlns="http://www.w3.org/2000/svg">
<path d="M28.9535 14.7212C28.9535 15.1728 29.0413 15.5655 29.217 15.8993C29.4123 16.2134 29.6563 16.4785 29.9492 16.6945C30.242 16.8908 30.5739 17.0381 30.9449 17.1363C31.3353 17.2344 31.7356 17.2835 32.1455 17.2835C32.4384 17.2835 32.741 17.2541 33.0534 17.1952C33.3853 17.1166 33.6781 17.0086 33.9319 16.8712C34.2053 16.7141 34.4298 16.5178 34.6055 16.2822C34.7812 16.0269 34.8691 15.7127 34.8691 15.3397C34.8691 14.7114 34.4493 14.2401 33.6098 13.926C32.7898 13.6118 31.6379 13.2977 30.1542 12.9835C29.5489 12.8461 28.9535 12.689 28.3678 12.5123C27.8016 12.3159 27.294 12.0705 26.845 11.776C26.3959 11.4618 26.0347 11.0789 25.7614 10.6273C25.4881 10.1561 25.3514 9.58668 25.3514 8.9191C25.3514 7.93736 25.5369 7.13233 25.9078 6.50402C26.2983 5.87571 26.8059 5.38484 27.4307 5.03141C28.0554 4.65835 28.7582 4.4031 29.5392 4.26566C30.3201 4.10858 31.1206 4.03004 31.9406 4.03004C32.7605 4.03004 33.5512 4.10858 34.3126 4.26566C35.0936 4.42273 35.7867 4.6878 36.3919 5.06086C36.9971 5.43392 37.4949 5.93461 37.8854 6.56293C38.2954 7.1716 38.5394 7.94718 38.6175 8.88965H34.6641C34.6055 8.08462 34.3029 7.54467 33.7562 7.26978C33.2096 6.97526 32.5653 6.828 31.8234 6.828C31.5891 6.828 31.3353 6.84763 31.062 6.8869C30.7887 6.90653 30.5349 6.96544 30.3006 7.06361C30.0858 7.16179 29.9004 7.30905 29.7442 7.5054C29.588 7.68211 29.5099 7.92754 29.5099 8.2417C29.5099 8.61476 29.6466 8.9191 29.9199 9.15472C30.1932 9.39034 30.5446 9.58668 30.9741 9.74376C31.4232 9.88121 31.9308 10.0088 32.497 10.1266C33.0631 10.2444 33.6391 10.3721 34.2248 10.5095C34.83 10.647 35.4157 10.8139 35.9819 11.0102C36.5676 11.2066 37.085 11.4716 37.534 11.8054C37.983 12.1196 38.3442 12.5221 38.6175 13.013C38.8909 13.4842 39.0275 14.0732 39.0275 14.7801C39.0275 15.7815 38.8225 16.6258 38.4125 17.313C38.0221 17.9806 37.5047 18.5205 36.8604 18.9328C36.2162 19.3452 35.4743 19.6299 34.6348 19.787C33.8148 19.9637 32.9753 20.052 32.1163 20.052C31.2377 20.052 30.3787 19.9637 29.5392 19.787C28.6997 19.6102 27.948 19.3157 27.2842 18.9034C26.64 18.4911 26.1031 17.9511 25.6736 17.2835C25.2636 16.5963 25.039 15.7422 25 14.7212H28.9535Z" fill="#C6C6C8"/>
<path d="M47.0548 16.9301C47.7381 16.9301 48.3043 16.7927 48.7534 16.5178C49.2219 16.2429 49.5929 15.8895 49.8662 15.4575C50.159 15.0059 50.364 14.4856 50.4812 13.8965C50.5983 13.3075 50.6569 12.7086 50.6569 12.0999C50.6569 11.4913 50.5886 10.8924 50.4519 10.3034C50.3348 9.71431 50.1298 9.19399 49.8369 8.74239C49.5441 8.27115 49.1634 7.89809 48.6948 7.6232C48.2458 7.32868 47.6893 7.18142 47.0256 7.18142C46.3422 7.18142 45.7663 7.32868 45.2977 7.6232C44.8487 7.89809 44.4777 8.26134 44.1849 8.71294C43.9116 9.16454 43.7163 9.68486 43.5992 10.2739C43.4821 10.8629 43.4235 11.4716 43.4235 12.0999C43.4235 12.7086 43.4821 13.3075 43.5992 13.8965C43.7359 14.4856 43.9409 15.0059 44.2142 15.4575C44.507 15.8895 44.8877 16.2429 45.3563 16.5178C45.8249 16.7927 46.391 16.9301 47.0548 16.9301ZM39.4114 4.03004H43.3649V6.38621H43.4235C43.9311 5.56155 44.5754 4.96269 45.3563 4.58963C46.1372 4.21657 46.9963 4.03004 47.9334 4.03004C49.1243 4.03004 50.1493 4.25584 51.0083 4.70744C51.8673 5.15904 52.5799 5.7579 53.1461 6.50402C53.7123 7.25014 54.132 8.12389 54.4054 9.12527C54.6787 10.107 54.8154 11.1378 54.8154 12.2177C54.8154 13.2388 54.6787 14.2205 54.4054 15.163C54.132 16.1054 53.7123 16.9399 53.1461 17.6664C52.5995 18.3929 51.9064 18.9721 51.0669 19.4041C50.2469 19.836 49.2805 20.052 48.1677 20.052C47.2305 20.052 46.3618 19.8655 45.5613 19.4924C44.7804 19.0997 44.1361 18.5303 43.6285 17.7842H43.5699V25H39.4114V4.03004Z" fill="#C6C6C8"/>
<path d="M55.2643 4.03004H59.2177V7.26978H59.2763C59.4715 6.79854 59.7351 6.36658 60.067 5.97388C60.3989 5.56155 60.7796 5.21794 61.2091 4.94306C61.6386 4.64853 62.0974 4.42273 62.5855 4.26566C63.0736 4.10858 63.5812 4.03004 64.1083 4.03004C64.3817 4.03004 64.6843 4.07912 65.0162 4.1773V8.06499C64.8209 8.02572 64.5867 7.99627 64.3133 7.97663C64.04 7.93736 63.7764 7.91773 63.5226 7.91773C62.7612 7.91773 62.117 8.04535 61.5898 8.3006C61.0627 8.55586 60.6332 8.90928 60.3013 9.36088C59.9889 9.79285 59.7644 10.3034 59.6277 10.8924C59.4911 11.4814 59.4227 12.1196 59.4227 12.8068V19.6692H55.2643V4.03004Z" fill="#C6C6C8"/>
<path d="M65.4042 4.03004H69.3577V6.56293H69.4455C69.9727 5.67936 70.656 5.04123 71.4955 4.64853C72.335 4.2362 73.194 4.03004 74.0726 4.03004C75.1854 4.03004 76.0932 4.18712 76.7961 4.50127C77.5184 4.79579 78.0846 5.21794 78.4946 5.76772C78.9046 6.29786 79.1877 6.95562 79.3439 7.74101C79.5196 8.50677 79.6074 9.36088 79.6074 10.3034V19.6692H75.449V11.0691C75.449 9.81248 75.2537 8.87983 74.8633 8.27115C74.4728 7.64284 73.7797 7.32868 72.784 7.32868C71.6517 7.32868 70.8317 7.67229 70.3241 8.35951C69.8165 9.02709 69.5627 10.1365 69.5627 11.6876V19.6692H65.4042V4.03004Z" fill="#C6C6C8"/>
<path d="M84.124 4.56509H89L88.3289 7.36305H84.124V14.9028C84.124 15.6097 84.2412 16.0809 84.4754 16.3165C84.7097 16.5521 85.1783 16.6699 85.8811 16.6699C86.1154 16.6699 86.3399 16.6601 86.5547 16.6405C86.7695 16.6209 86.9745 16.5914 87.1697 16.5521V19.7919C86.8183 19.8508 86.4278 19.89 85.9983 19.9097C85.5688 19.9293 85.149 19.9391 84.739 19.9391C84.0948 19.9391 83.4798 19.89 82.8941 19.7919C82.3279 19.7133 81.8203 19.5464 81.3712 19.2912C80.9417 19.0359 80.6001 18.6727 80.3463 18.2015C80.0925 17.7302 79.9656 17.1117 79.9656 16.346V0H84.124V4.56509Z" fill="#C6C6C8"/>
<path d="M0 36.1319H2.82265C3.51034 36.1319 4.04486 36.2826 4.42621 36.5841C4.81382 36.8793 5.00762 37.2938 5.00762 37.8277C5.00762 38.5248 4.66065 38.9927 3.96671 39.2314V39.2502C4.34807 39.3193 4.66065 39.4921 4.90447 39.7684C5.14829 40.0448 5.27019 40.4216 5.27019 40.8989C5.27019 41.5333 5.06701 42.02 4.66065 42.3592C4.25429 42.6983 3.69789 42.8679 2.99145 42.8679H0V36.1319ZM2.91642 41.9729C3.37905 41.9729 3.70727 41.8756 3.90107 41.6809C4.09487 41.4799 4.19177 41.2067 4.19177 40.8612C4.19177 40.5095 4.09175 40.2363 3.89169 40.0416C3.69164 39.8469 3.41344 39.7496 3.05709 39.7496H1.03153V41.9729H2.91642ZM2.79452 38.9299C3.20088 38.9299 3.49158 38.8514 3.66663 38.6944C3.84168 38.5311 3.9292 38.2924 3.9292 37.9784C3.9292 37.6769 3.83855 37.4446 3.65725 37.2813C3.47595 37.1117 3.21338 37.0269 2.86954 37.0269H1.03153V38.9299H2.79452Z" fill="#C6C6C8"/>
<path d="M8.44912 42.9998C7.56138 42.9998 6.90182 42.7863 6.47045 42.3592C6.04533 41.9321 5.83278 41.3386 5.83278 40.5786V36.1319H6.86431V40.5786C6.86431 41.0999 6.99559 41.4862 7.25817 41.7374C7.52074 41.9823 7.91772 42.1048 8.44912 42.1048C8.98677 42.1048 9.38375 41.9823 9.64007 41.7374C9.90264 41.4862 10.0339 41.0999 10.0339 40.5786V36.1319H11.0748V40.5786C11.0748 41.3386 10.8592 41.9321 10.4278 42.3592C10.0027 42.7863 9.34311 42.9998 8.44912 42.9998Z" fill="#C6C6C8"/>
<path d="M11.9883 36.1319H13.0198V42.8679H11.9883V36.1319Z" fill="#C6C6C8"/>
<path d="M13.9759 36.1319H15.0074V41.9729H18.4021V42.8679H13.9759V36.1319Z" fill="#C6C6C8"/>
<path d="M19.3171 37.0269H17.1508V36.1319H22.5242V37.0269H20.358V42.8679H19.3171V37.0269Z" fill="#C6C6C8"/>
<path d="M24.2703 36.1319H27.093C27.7807 36.1319 28.3152 36.2826 28.6965 36.5841C29.0841 36.8793 29.2779 37.2938 29.2779 37.8277C29.2779 38.5248 28.931 38.9927 28.237 39.2314V39.2502C28.6184 39.3193 28.931 39.4921 29.1748 39.7684C29.4186 40.0448 29.5405 40.4216 29.5405 40.8989C29.5405 41.5333 29.3373 42.02 28.931 42.3592C28.5246 42.6983 27.9682 42.8679 27.2618 42.8679H24.2703V36.1319ZM27.1868 41.9729C27.6494 41.9729 27.9776 41.8756 28.1714 41.6809C28.3652 41.4799 28.4621 41.2067 28.4621 40.8612C28.4621 40.5095 28.3621 40.2363 28.162 40.0416C27.962 39.8469 27.6838 39.7496 27.3274 39.7496H25.3019V41.9729H27.1868ZM27.0648 38.9299C27.4712 38.9299 27.7619 38.8514 27.937 38.6944C28.112 38.5311 28.1995 38.2924 28.1995 37.9784C28.1995 37.6769 28.1089 37.4446 27.9276 37.2813C27.7463 37.1117 27.4837 37.0269 27.1399 37.0269H25.3019V38.9299H27.0648Z" fill="#C6C6C8"/>
<path d="M31.6025 40.1735L29.2018 36.1319H30.3178L32.1183 39.3539H32.137L33.9375 36.1319H35.0441L32.6434 40.1735V42.8679H31.6025V40.1735Z" fill="#C6C6C8"/>
<path d="M38.2533 36.1319H39.3692L41.8824 42.8679H40.7571L40.2038 41.2475H37.4L36.8467 42.8679H35.7589L38.2533 36.1319ZM39.9131 40.3713L38.816 37.0928H38.7972L37.7094 40.3713H39.9131Z" fill="#C6C6C8"/>
<path d="M44.7594 42.9998C44.1342 42.9998 43.584 42.8522 43.1089 42.557C42.64 42.2555 42.2743 41.841 42.0117 41.3134C41.7554 40.7796 41.6273 40.1766 41.6273 39.5046C41.6273 38.8326 41.7554 38.2296 42.0117 37.6958C42.2743 37.1619 42.6432 36.7474 43.1183 36.4522C43.5934 36.1507 44.1436 36 44.7687 36C45.3126 36 45.7909 36.1068 46.2035 36.3203C46.6224 36.5339 46.9537 36.8228 47.1975 37.187C47.4413 37.5513 47.5914 37.9627 47.6477 38.4212H46.5692C46.4942 38.0004 46.316 37.6424 46.0347 37.3472C45.7534 37.0457 45.3251 36.895 44.75 36.895C44.056 36.895 43.5403 37.1431 43.2027 37.6393C42.8713 38.1354 42.7057 38.7541 42.7057 39.4952C42.7057 40.2426 42.8713 40.8644 43.2027 41.3605C43.5403 41.8567 44.056 42.1048 44.75 42.1048C45.3439 42.1048 45.7846 41.9447 46.0722 41.6243C46.3661 41.2977 46.5317 40.8958 46.5692 40.4184H47.6477C47.5976 40.9209 47.4507 41.3668 47.2069 41.7562C46.9631 42.1456 46.6318 42.4502 46.2129 42.6701C45.794 42.8899 45.3095 42.9998 44.7594 42.9998Z" fill="#C6C6C8"/>
<path d="M49.5403 37.0269H47.3741V36.1319H52.7474V37.0269H50.5812V42.8679H49.5403V37.0269Z" fill="#C6C6C8"/>
<path d="M55.7439 42.9998C54.8562 42.9998 54.1966 42.7863 53.7653 42.3592C53.3402 41.9321 53.1276 41.3386 53.1276 40.5786V36.1319H54.1591V40.5786C54.1591 41.0999 54.2904 41.4862 54.553 41.7374C54.8156 41.9823 55.2125 42.1048 55.7439 42.1048C56.2816 42.1048 56.6786 41.9823 56.9349 41.7374C57.1975 41.4862 57.3288 41.0999 57.3288 40.5786V36.1319H58.3697V40.5786C58.3697 41.3386 58.154 41.9321 57.7226 42.3592C57.2975 42.7863 56.6379 42.9998 55.7439 42.9998Z" fill="#C6C6C8"/>
<path d="M60.9752 36.1319H62.0912L64.6044 42.8679H63.479L62.9258 41.2475H60.1219L59.5686 42.8679H58.4808L60.9752 36.1319ZM62.6351 40.3713L61.5379 37.0928H61.5191L60.4313 40.3713H62.6351Z" fill="#C6C6C8"/>
<path d="M64.9247 36.1319H65.9562V41.9729H69.3509V42.8679H64.9247V36.1319Z" fill="#C6C6C8"/>
<path d="M73.9108 42.9998C73.2856 42.9998 72.7355 42.8522 72.2603 42.557C71.7915 42.2555 71.4257 41.841 71.1632 41.3134C70.9068 40.7796 70.7787 40.1766 70.7787 39.5046C70.7787 38.8326 70.9068 38.2296 71.1632 37.6958C71.4257 37.1619 71.7946 36.7474 72.2697 36.4522C72.7448 36.1507 73.295 36 73.9202 36C74.4641 36 74.9423 36.1068 75.3549 36.3203C75.7738 36.5339 76.1051 36.8228 76.349 37.187C76.5928 37.5513 76.7428 37.9627 76.7991 38.4212H75.7207C75.6456 38.0004 75.4675 37.6424 75.1861 37.3472C74.9048 37.0457 74.4766 36.895 73.9014 36.895C73.2075 36.895 72.6917 37.1431 72.3541 37.6393C72.0228 38.1354 71.8571 38.7541 71.8571 39.4952C71.8571 40.2426 72.0228 40.8644 72.3541 41.3605C72.6917 41.8567 73.2075 42.1048 73.9014 42.1048C74.4953 42.1048 74.9361 41.9447 75.2236 41.6243C75.5175 41.2977 75.6831 40.8958 75.7207 40.4184H76.7991C76.7491 40.9209 76.6022 41.3668 76.3583 41.7562C76.1145 42.1456 75.7832 42.4502 75.3643 42.6701C74.9454 42.8899 74.4609 42.9998 73.9108 42.9998Z" fill="#C6C6C8"/>
<path d="M80.3162 42.9998C79.6598 42.9998 79.0815 42.8491 78.5813 42.5476C78.0875 42.2461 77.703 41.8316 77.4279 41.304C77.1591 40.7702 77.0247 40.1672 77.0247 39.4952C77.0247 38.8232 77.1591 38.2234 77.4279 37.6958C77.703 37.1619 78.0875 36.7474 78.5813 36.4522C79.0815 36.1507 79.6598 36 80.3162 36C80.9726 36 81.5478 36.1507 82.0417 36.4522C82.5418 36.7474 82.9263 37.1619 83.1951 37.6958C83.4702 38.2234 83.6077 38.8232 83.6077 39.4952C83.6077 40.1672 83.4702 40.7702 83.1951 41.304C82.9263 41.8316 82.5418 42.2461 82.0417 42.5476C81.5478 42.8491 80.9726 42.9998 80.3162 42.9998ZM78.1031 39.4952C78.1031 40.2489 78.2844 40.8738 78.647 41.37C79.0158 41.8599 79.5722 42.1048 80.3162 42.1048C81.0601 42.1048 81.6134 41.8599 81.976 41.37C82.3449 40.8738 82.5293 40.2489 82.5293 39.4952C82.5293 38.7415 82.3449 38.1197 81.976 37.6298C81.6134 37.1399 81.0601 36.895 80.3162 36.895C79.5722 36.895 79.0158 37.1399 78.647 37.6298C78.2844 38.1197 78.1031 38.7415 78.1031 39.4952Z" fill="#C6C6C8"/>
<path d="M83.5863 36.1319H84.6647L85.8463 41.4359H85.8651L87.253 36.1319H88.3407L89.738 41.4359H89.7568L90.9383 36.1319H92.0168L90.3382 42.8679H89.2316L87.8062 37.4508H87.7875L86.3715 42.8679H85.2555L83.5863 36.1319Z" fill="#C6C6C8"/>
<path d="M92.4365 36.1319H95.2591C95.9468 36.1319 96.4813 36.2826 96.8627 36.5841C97.2503 36.8793 97.4441 37.2938 97.4441 37.8277C97.4441 38.5248 97.0971 38.9927 96.4032 39.2314V39.2502C96.7845 39.3193 97.0971 39.4921 97.3409 39.7684C97.5848 40.0448 97.7067 40.4216 97.7067 40.8989C97.7067 41.5333 97.5035 42.02 97.0971 42.3592C96.6908 42.6983 96.1344 42.8679 95.4279 42.8679H92.4365V36.1319ZM95.3529 41.9729C95.8155 41.9729 96.1437 41.8756 96.3375 41.6809C96.5313 41.4799 96.6282 41.2067 96.6282 40.8612C96.6282 40.5095 96.5282 40.2363 96.3282 40.0416C96.1281 39.8469 95.8499 39.7496 95.4936 39.7496H93.468V41.9729H95.3529ZM95.231 38.9299C95.6373 38.9299 95.9281 38.8514 96.1031 38.6944C96.2782 38.5311 96.3657 38.2924 96.3657 37.9784C96.3657 37.6769 96.275 37.4446 96.0937 37.2813C95.9124 37.1117 95.6499 37.0269 95.306 37.0269H93.468V38.9299H95.231Z" fill="#C6C6C8"/>
<path d="M101.279 42.9998C100.623 42.9998 100.045 42.8491 99.5446 42.5476C99.0507 42.2461 98.6662 41.8316 98.3912 41.304C98.1223 40.7702 97.9879 40.1672 97.9879 39.4952C97.9879 38.8232 98.1223 38.2234 98.3912 37.6958C98.6662 37.1619 99.0507 36.7474 99.5446 36.4522C100.045 36.1507 100.623 36 101.279 36C101.936 36 102.511 36.1507 103.005 36.4522C103.505 36.7474 103.89 37.1619 104.158 37.6958C104.433 38.2234 104.571 38.8232 104.571 39.4952C104.571 40.1672 104.433 40.7702 104.158 41.304C103.89 41.8316 103.505 42.2461 103.005 42.5476C102.511 42.8491 101.936 42.9998 101.279 42.9998ZM99.0663 39.4952C99.0663 40.2489 99.2476 40.8738 99.6102 41.37C99.9791 41.8599 100.535 42.1048 101.279 42.1048C102.023 42.1048 102.577 41.8599 102.939 41.37C103.308 40.8738 103.493 40.2489 103.493 39.4952C103.493 38.7415 103.308 38.1197 102.939 37.6298C102.577 37.1399 102.023 36.895 101.279 36.895C100.535 36.895 99.9791 37.1399 99.6102 37.6298C99.2476 38.1197 99.0663 38.7415 99.0663 39.4952Z" fill="#C6C6C8"/>
<path d="M106.5 40.1735L104.099 36.1319H105.215L107.016 39.3539H107.034L108.835 36.1319H109.942L107.541 40.1735V42.8679H106.5V40.1735Z" fill="#C6C6C8"/>
<path d="M112.543 42.9998C111.974 42.9998 111.471 42.9056 111.033 42.7172C110.596 42.5225 110.249 42.2461 109.992 41.8881C109.742 41.5238 109.605 41.0936 109.58 40.5975H110.649C110.686 41.0748 110.855 41.4485 111.155 41.7185C111.462 41.9823 111.915 42.1142 112.515 42.1142C113.453 42.1142 113.922 41.7531 113.922 41.0308C113.922 40.7607 113.853 40.5503 113.715 40.3996C113.584 40.2489 113.406 40.1358 113.181 40.0605C112.962 39.9851 112.584 39.8783 112.046 39.7401C111.583 39.6145 111.202 39.4889 110.902 39.3633C110.608 39.2377 110.358 39.0524 110.152 38.8075C109.945 38.5562 109.842 38.2328 109.842 37.8371C109.842 37.2593 110.052 36.8102 110.471 36.4899C110.89 36.1633 111.462 36 112.187 36C112.956 36 113.571 36.1884 114.034 36.5653C114.503 36.9421 114.762 37.4665 114.812 38.1386H113.743C113.687 37.724 113.534 37.4131 113.284 37.2059C113.034 36.9923 112.671 36.8856 112.196 36.8856C111.777 36.8856 111.458 36.9609 111.24 37.1117C111.027 37.2624 110.921 37.4854 110.921 37.7806C110.921 38.0192 110.986 38.2077 111.118 38.3458C111.249 38.484 111.415 38.5908 111.615 38.6661C111.815 38.7352 112.105 38.8169 112.487 38.9111C113.056 39.0555 113.506 39.1937 113.837 39.3256C114.169 39.4575 114.444 39.6553 114.662 39.9191C114.887 40.1766 115 40.5284 115 40.9743C115 41.5835 114.791 42.0734 114.372 42.444C113.959 42.8145 113.35 42.9998 112.543 42.9998Z" fill="#C6C6C8"/>
<path d="M19.7865 43.9827H20.818V50.7187H19.7865V43.9827Z" fill="#C6C6C8"/>
<path d="M21.7741 43.9827H22.9557L26.069 49.1643H26.0878V43.9827H27.1287V50.7187H25.9471L22.8244 45.5372H22.8056V50.7187H21.7741V43.9827Z" fill="#C6C6C8"/>
<path d="M29.6688 43.9827H30.7004V49.8237H34.0951V50.7187H29.6688V43.9827Z" fill="#C6C6C8"/>
<path d="M36.389 43.9827H37.5049L40.0181 50.7187H38.8928L38.3395 49.0983H35.5356L34.9823 50.7187H33.8945L36.389 43.9827ZM38.0488 48.2222L36.9516 44.9437H36.9329L35.8451 48.2222H38.0488Z" fill="#C6C6C8"/>
<path d="M42.7919 50.8506C42.1605 50.8506 41.6166 50.703 41.1602 50.4079C40.7101 50.1064 40.3662 49.6919 40.1286 49.1643C39.8911 48.6367 39.7723 48.0306 39.7723 47.346C39.7723 46.674 39.9005 46.0742 40.1568 45.5466C40.4193 45.0128 40.7882 44.5982 41.2633 44.303C41.7385 44.0016 42.2886 43.8508 42.9138 43.8508C43.7453 43.8508 44.4017 44.0518 44.8831 44.4538C45.3707 44.8557 45.6708 45.3927 45.7833 46.0648H44.7049C44.6174 45.6377 44.4173 45.3111 44.1047 45.085C43.7984 44.8589 43.3983 44.7458 42.9044 44.7458C42.4355 44.7458 42.0479 44.8714 41.7416 45.1227C41.4353 45.3676 41.2102 45.6879 41.0664 46.0836C40.9226 46.473 40.8507 46.8938 40.8507 47.346C40.8507 48.0871 41.0039 48.7089 41.3102 49.2114C41.6166 49.7076 42.1292 49.9556 42.8481 49.9556C43.217 49.9556 43.5515 49.8771 43.8515 49.7201C44.1579 49.5568 44.3986 49.3307 44.5736 49.0418C44.7549 48.7529 44.8456 48.4263 44.8456 48.062H42.8669V47.1953H45.8959V50.7187H45.1832L44.93 49.7861H44.9112C44.6674 50.1441 44.3767 50.411 44.0391 50.5868C43.7015 50.7627 43.2858 50.8506 42.7919 50.8506Z" fill="#C6C6C8"/>
<path d="M49.5935 50.8506C48.937 50.8506 48.3588 50.6999 47.8586 50.3984C47.3647 50.097 46.9802 49.6824 46.7052 49.1549C46.4363 48.621 46.3019 48.0181 46.3019 47.346C46.3019 46.674 46.4363 46.0742 46.7052 45.5466C46.9802 45.0128 47.3647 44.5982 47.8586 44.303C48.3588 44.0016 48.937 43.8508 49.5935 43.8508C50.2499 43.8508 50.8251 44.0016 51.3189 44.303C51.8191 44.5982 52.2036 45.0128 52.4724 45.5466C52.7475 46.0742 52.885 46.674 52.885 47.346C52.885 48.0181 52.7475 48.621 52.4724 49.1549C52.2036 49.6824 51.8191 50.097 51.3189 50.3984C50.8251 50.6999 50.2499 50.8506 49.5935 50.8506ZM47.3804 47.346C47.3804 48.0997 47.5617 48.7246 47.9243 49.2208C48.2931 49.7107 48.8495 49.9556 49.5935 49.9556C50.3374 49.9556 50.8907 49.7107 51.2533 49.2208C51.6221 48.7246 51.8066 48.0997 51.8066 47.346C51.8066 46.5923 51.6221 45.9706 51.2533 45.4807C50.8907 44.9908 50.3374 44.7458 49.5935 44.7458C48.8495 44.7458 48.2931 44.9908 47.9243 45.4807C47.5617 45.9706 47.3804 46.5923 47.3804 47.346Z" fill="#C6C6C8"/>
<path d="M56.0397 50.8506C55.4708 50.8506 54.9676 50.7564 54.5299 50.568C54.0923 50.3733 53.7454 50.097 53.489 49.739C53.239 49.3747 53.1014 48.9445 53.0764 48.4483H54.1455C54.183 48.9256 54.3518 49.2993 54.6519 49.5694C54.9582 49.8332 55.4114 49.9651 56.0116 49.9651C56.9494 49.9651 57.4182 49.6039 57.4182 48.8816C57.4182 48.6116 57.3495 48.4012 57.2119 48.2504C57.0806 48.0997 56.9025 47.9867 56.6774 47.9113C56.4586 47.8359 56.0804 47.7291 55.5427 47.591C55.0801 47.4654 54.6987 47.3397 54.3987 47.2141C54.1048 47.0885 53.8548 46.9032 53.6485 46.6583C53.4422 46.4071 53.339 46.0836 53.339 45.6879C53.339 45.1101 53.5484 44.661 53.9673 44.3407C54.3862 44.0141 54.9582 43.8508 55.6834 43.8508C56.4524 43.8508 57.0681 44.0393 57.5308 44.4161C57.9997 44.7929 58.2591 45.3174 58.3091 45.9894H57.2401C57.1838 45.5749 57.0306 45.264 56.7806 45.0567C56.5305 44.8432 56.1679 44.7364 55.6928 44.7364C55.2739 44.7364 54.9551 44.8118 54.7363 44.9625C54.5237 45.1132 54.4174 45.3362 54.4174 45.6314C54.4174 45.8701 54.4831 46.0585 54.6143 46.1967C54.7456 46.3348 54.9113 46.4416 55.1114 46.517C55.3114 46.5861 55.6021 46.6677 55.9835 46.7619C56.5524 46.9064 57.0025 47.0446 57.3338 47.1764C57.6652 47.3083 57.9403 47.5062 58.1591 47.77C58.3841 48.0275 58.4967 48.3792 58.4967 48.8251C58.4967 49.4343 58.2872 49.9242 57.8684 50.2948C57.4557 50.6654 56.8462 50.8506 56.0397 50.8506Z" fill="#C6C6C8"/>
<path d="M58.8421 51.4913C59.0234 51.4347 59.1516 51.35 59.2266 51.2369C59.3016 51.1301 59.336 50.9574 59.3297 50.7187H58.8421V49.6919H59.8642V50.7187C59.8642 51.4033 59.5235 51.8304 58.8421 52V51.4913Z" fill="#C6C6C8"/>
<path d="M61.9343 43.9827H63.1159L66.2292 49.1643H66.248V43.9827H67.2889V50.7187H66.1073L62.9846 45.5372H62.9658V50.7187H61.9343V43.9827Z" fill="#C6C6C8"/>
<path d="M68.2444 43.9827H69.2759V50.7187H68.2444V43.9827Z" fill="#C6C6C8"/>
<path d="M72.9327 50.8506C72.3013 50.8506 71.7574 50.703 71.301 50.4079C70.8509 50.1064 70.507 49.6919 70.2695 49.1643C70.0319 48.6367 69.9131 48.0306 69.9131 47.346C69.9131 46.674 70.0413 46.0742 70.2976 45.5466C70.5602 45.0128 70.929 44.5982 71.4042 44.303C71.8793 44.0016 72.4294 43.8508 73.0546 43.8508C73.8861 43.8508 74.5425 44.0518 75.0239 44.4538C75.5115 44.8557 75.8116 45.3927 75.9241 46.0648H74.8457C74.7582 45.6377 74.5582 45.3111 74.2456 45.085C73.9392 44.8589 73.5391 44.7458 73.0452 44.7458C72.5764 44.7458 72.1887 44.8714 71.8824 45.1227C71.5761 45.3676 71.351 45.6879 71.2072 46.0836C71.0634 46.473 70.9915 46.8938 70.9915 47.346C70.9915 48.0871 71.1447 48.7089 71.451 49.2114C71.7574 49.7076 72.27 49.9556 72.989 49.9556C73.3578 49.9556 73.6923 49.8771 73.9924 49.7201C74.2987 49.5568 74.5394 49.3307 74.7144 49.0418C74.8957 48.7529 74.9864 48.4263 74.9864 48.062H73.0077V47.1953H76.0367V50.7187H75.324L75.0708 49.7861H75.052C74.8082 50.1441 74.5175 50.411 74.1799 50.5868C73.8423 50.7627 73.4266 50.8506 72.9327 50.8506Z" fill="#C6C6C8"/>
<path d="M76.771 43.9827H81.516V44.8777H77.8025V46.7902H81.0565V47.6852H77.8025V49.8237H81.6098V50.7187H76.771V43.9827Z" fill="#C6C6C8"/>
<path d="M82.2019 43.9827H84.9964C85.7341 43.9827 86.2968 44.1523 86.6844 44.4915C87.0783 44.8243 87.2752 45.3017 87.2752 45.9235C87.2752 46.3443 87.1595 46.7023 86.9282 46.9974C86.6969 47.2926 86.3937 47.4842 86.0186 47.5721V47.591C86.3437 47.6538 86.5875 47.8077 86.75 48.0526C86.9188 48.2975 87.0282 48.5676 87.0782 48.8628C87.1345 49.158 87.1752 49.5034 87.2002 49.8991C87.2189 50.1566 87.2377 50.3419 87.2564 50.455C87.2752 50.568 87.3127 50.634 87.369 50.6528V50.7187H86.2624C86.2186 50.6811 86.1905 50.6151 86.178 50.5209C86.1717 50.4204 86.1655 50.2571 86.1592 50.031C86.153 49.6542 86.1249 49.3339 86.0749 49.0701C86.0311 48.8063 85.9217 48.577 85.7466 48.3823C85.5778 48.1814 85.3153 48.0809 84.9589 48.0809H83.2334V50.7187H82.2019V43.9827ZM84.7714 47.1859C85.2465 47.1859 85.6091 47.0854 85.8592 46.8844C86.1092 46.6771 86.2343 46.3819 86.2343 45.9988C86.2343 45.6283 86.1186 45.3488 85.8873 45.1604C85.6622 44.9719 85.2965 44.8777 84.7901 44.8777H83.2334V47.1859H84.7714Z" fill="#C6C6C8"/>
<path d="M87.9808 43.9827H89.0124V50.7187H87.9808V43.9827Z" fill="#C6C6C8"/>
<path d="M91.8346 43.9827H92.9505L95.4637 50.7187H94.3384L93.7851 49.0983H90.9812L90.428 50.7187H89.3402L91.8346 43.9827ZM93.4944 48.2222L92.3972 44.9437H92.3785L91.2907 48.2222H93.4944Z" fill="#C6C6C8"/>
</svg>
